STARTFONT 2.1
COMMENT Font: PICO-8 (3x5 / 4px Monospace)
COMMENT Author: Joseph White (zep) / Lexaloffle Games
COMMENT License: Creative Commons CC0 1.0 Universal (Public Domain)
COMMENT Source: https://www.lexaloffle.com/pico-8.php?page=faq
FONT -FreeType-PICO 8-Medium-R-Normal--6-60-72-72-P-43-ISO10646-1
SIZE 6 72 72
FONTBOUNDINGBOX 7 5 0 0
STARTPROPERTIES 19
FOUNDRY "FreeType"
FAMILY_NAME "PICO 8"
WEIGHT_NAME "Medium"
SLANT "R"
SETWIDTH_NAME "Normal"
ADD_STYLE_NAME ""
PIXEL_SIZE 6
POINT_SIZE 60
RESOLUTION_X 72
RESOLUTION_Y 72
SPACING "P"
AVERAGE_WIDTH 43
CHARSET_REGISTRY "ISO10646"
CHARSET_ENCODING "1"
FONT_ASCENT 6
FONT_DESCENT 0
COPYRIGHT "Copyright Simbax 2022  PICO-8 wide reversed by RhythmLynx (https://fontstruct.com/fontstructors/show/1302418/rhythmlynx), which is based on PICO-8 mono reversed by RhythmLynx (https://fontstruct.com/fontstructors/show/1302418/rhythmlynx), which is based on PICO-8 by RhythmLynx (https://fontstruct.com/fontstructors/show/1302418/rhythmlynx)"
_OTF_FONTFILE "pico-8.otf"
_OTF_PSNAME "PICO-8"
ENDPROPERTIES
CHARS 265
STARTCHAR 0020
ENCODING 32
SWIDTH 666 0
DWIDTH 4 0
BBX 0 0 0 0
BITMAP
ENDCHAR
STARTCHAR 0021
ENCODING 33
SWIDTH 666 0
DWIDTH 4 0
BBX 1 5 1 0
BITMAP
80
80
80
00
80
ENDCHAR
STARTCHAR 0022
ENCODING 34
SWIDTH 666 0
DWIDTH 4 0
BBX 3 2 0 3
BITMAP
A0
A0
ENDCHAR
STARTCHAR 0023
ENCODING 35
SWIDTH 666 0
DWIDTH 4 0
BBX 3 5 0 0
BITMAP
A0
E0
A0
E0
A0
ENDCHAR
STARTCHAR 0024
ENCODING 36
SWIDTH 666 0
DWIDTH 4 0
BBX 3 5 0 0
BITMAP
E0
C0
60
E0
40
ENDCHAR
STARTCHAR 0025
ENCODING 37
SWIDTH 666 0
DWIDTH 4 0
BBX 3 5 0 0
BITMAP
A0
20
40
80
A0
ENDCHAR
STARTCHAR 0026
ENCODING 38
SWIDTH 666 0
DWIDTH 4 0
BBX 3 5 0 0
BITMAP
C0
C0
60
A0
E0
ENDCHAR
STARTCHAR 0027
ENCODING 39
SWIDTH 666 0
DWIDTH 4 0
BBX 2 2 0 3
BITMAP
40
80
ENDCHAR
STARTCHAR 0028
ENCODING 40
SWIDTH 666 0
DWIDTH 4 0
BBX 2 5 0 0
BITMAP
40
80
80
80
40
ENDCHAR
STARTCHAR 0029
ENCODING 41
SWIDTH 666 0
DWIDTH 4 0
BBX 2 5 1 0
BITMAP
80
40
40
40
80
ENDCHAR
STARTCHAR 002A
ENCODING 42
SWIDTH 666 0
DWIDTH 4 0
BBX 3 5 0 0
BITMAP
A0
40
E0
40
A0
ENDCHAR
STARTCHAR 002B
ENCODING 43
SWIDTH 666 0
DWIDTH 4 0
BBX 3 3 0 1
BITMAP
40
E0
40
ENDCHAR
STARTCHAR 002C
ENCODING 44
SWIDTH 666 0
DWIDTH 4 0
BBX 2 2 0 0
BITMAP
40
80
ENDCHAR
STARTCHAR 002D
ENCODING 45
SWIDTH 666 0
DWIDTH 4 0
BBX 3 1 0 2
BITMAP
E0
ENDCHAR
STARTCHAR 002E
ENCODING 46
SWIDTH 666 0
DWIDTH 4 0
BBX 1 1 1 0
BITMAP
80
ENDCHAR
STARTCHAR 002F
ENCODING 47
SWIDTH 666 0
DWIDTH 4 0
BBX 3 5 0 0
BITMAP
20
40
40
40
80
ENDCHAR
STARTCHAR 0030
ENCODING 48
SWIDTH 666 0
DWIDTH 4 0
BBX 3 5 0 0
BITMAP
E0
A0
A0
A0
E0
ENDCHAR
STARTCHAR 0031
ENCODING 49
SWIDTH 666 0
DWIDTH 4 0
BBX 3 5 0 0
BITMAP
C0
40
40
40
E0
ENDCHAR
STARTCHAR 0032
ENCODING 50
SWIDTH 666 0
DWIDTH 4 0
BBX 3 5 0 0
BITMAP
E0
20
E0
80
E0
ENDCHAR
STARTCHAR 0033
ENCODING 51
SWIDTH 666 0
DWIDTH 4 0
BBX 3 5 0 0
BITMAP
E0
20
60
20
E0
ENDCHAR
STARTCHAR 0034
ENCODING 52
SWIDTH 666 0
DWIDTH 4 0
BBX 3 5 0 0
BITMAP
A0
A0
E0
20
20
ENDCHAR
STARTCHAR 0035
ENCODING 53
SWIDTH 666 0
DWIDTH 4 0
BBX 3 5 0 0
BITMAP
E0
80
E0
20
E0
ENDCHAR
STARTCHAR 0036
ENCODING 54
SWIDTH 666 0
DWIDTH 4 0
BBX 3 5 0 0
BITMAP
80
80
E0
A0
E0
ENDCHAR
STARTCHAR 0037
ENCODING 55
SWIDTH 666 0
DWIDTH 4 0
BBX 3 5 0 0
BITMAP
E0
20
20
20
20
ENDCHAR
STARTCHAR 0038
ENCODING 56
SWIDTH 666 0
DWIDTH 4 0
BBX 3 5 0 0
BITMAP
E0
A0
E0
A0
E0
ENDCHAR
STARTCHAR 0039
ENCODING 57
SWIDTH 666 0
DWIDTH 4 0
BBX 3 5 0 0
BITMAP
E0
A0
E0
20
20
ENDCHAR
STARTCHAR 003A
ENCODING 58
SWIDTH 666 0
DWIDTH 4 0
BBX 1 3 1 1
BITMAP
80
00
80
ENDCHAR
STARTCHAR 003B
ENCODING 59
SWIDTH 666 0
DWIDTH 4 0
BBX 2 4 0 0
BITMAP
40
00
40
80
ENDCHAR
STARTCHAR 003C
ENCODING 60
SWIDTH 666 0
DWIDTH 4 0
BBX 3 5 0 0
BITMAP
20
40
80
40
20
ENDCHAR
STARTCHAR 003D
ENCODING 61
SWIDTH 666 0
DWIDTH 4 0
BBX 3 3 0 1
BITMAP
E0
00
E0
ENDCHAR
STARTCHAR 003E
ENCODING 62
SWIDTH 666 0
DWIDTH 4 0
BBX 3 5 0 0
BITMAP
80
40
20
40
80
ENDCHAR
STARTCHAR 003F
ENCODING 63
SWIDTH 666 0
DWIDTH 4 0
BBX 3 5 0 0
BITMAP
E0
20
60
00
40
ENDCHAR
STARTCHAR 0040
ENCODING 64
SWIDTH 666 0
DWIDTH 4 0
BBX 3 5 0 0
BITMAP
40
A0
A0
80
60
ENDCHAR
STARTCHAR 0061
ENCODING 65
SWIDTH 666 0
DWIDTH 4 0
BBX 3 5 0 0
BITMAP
E0
A0
E0
A0
A0
ENDCHAR
STARTCHAR 0062
ENCODING 66
SWIDTH 666 0
DWIDTH 4 0
BBX 3 5 0 0
BITMAP
E0
A0
C0
A0
E0
ENDCHAR
STARTCHAR 0063
ENCODING 67
SWIDTH 666 0
DWIDTH 4 0
BBX 3 5 0 0
BITMAP
60
80
80
80
60
ENDCHAR
STARTCHAR 0064
ENCODING 68
SWIDTH 666 0
DWIDTH 4 0
BBX 3 5 0 0
BITMAP
C0
A0
A0
A0
E0
ENDCHAR
STARTCHAR 0065
ENCODING 69
SWIDTH 666 0
DWIDTH 4 0
BBX 3 5 0 0
BITMAP
E0
80
C0
80
E0
ENDCHAR
STARTCHAR 0066
ENCODING 70
SWIDTH 666 0
DWIDTH 4 0
BBX 3 5 0 0
BITMAP
E0
80
C0
80
80
ENDCHAR
STARTCHAR 0067
ENCODING 71
SWIDTH 666 0
DWIDTH 4 0
BBX 3 5 0 0
BITMAP
60
80
80
A0
E0
ENDCHAR
STARTCHAR 0068
ENCODING 72
SWIDTH 666 0
DWIDTH 4 0
BBX 3 5 0 0
BITMAP
A0
A0
E0
A0
A0
ENDCHAR
STARTCHAR 0069
ENCODING 73
SWIDTH 666 0
DWIDTH 4 0
BBX 3 5 0 0
BITMAP
E0
40
40
40
E0
ENDCHAR
STARTCHAR 006A
ENCODING 74
SWIDTH 666 0
DWIDTH 4 0
BBX 3 5 0 0
BITMAP
E0
40
40
40
C0
ENDCHAR
STARTCHAR 006B
ENCODING 75
SWIDTH 666 0
DWIDTH 4 0
BBX 3 5 0 0
BITMAP
A0
A0
C0
A0
A0
ENDCHAR
STARTCHAR 006C
ENCODING 76
SWIDTH 666 0
DWIDTH 4 0
BBX 3 5 0 0
BITMAP
80
80
80
80
E0
ENDCHAR
STARTCHAR 006D
ENCODING 77
SWIDTH 666 0
DWIDTH 4 0
BBX 3 5 0 0
BITMAP
E0
E0
A0
A0
A0
ENDCHAR
STARTCHAR 006E
ENCODING 78
SWIDTH 666 0
DWIDTH 4 0
BBX 3 5 0 0
BITMAP
C0
A0
A0
A0
A0
ENDCHAR
STARTCHAR 006F
ENCODING 79
SWIDTH 666 0
DWIDTH 4 0
BBX 3 5 0 0
BITMAP
60
A0
A0
A0
C0
ENDCHAR
STARTCHAR 0070
ENCODING 80
SWIDTH 666 0
DWIDTH 4 0
BBX 3 5 0 0
BITMAP
E0
A0
E0
80
80
ENDCHAR
STARTCHAR 0071
ENCODING 81
SWIDTH 666 0
DWIDTH 4 0
BBX 3 5 0 0
BITMAP
40
A0
A0
C0
60
ENDCHAR
STARTCHAR 0072
ENCODING 82
SWIDTH 666 0
DWIDTH 4 0
BBX 3 5 0 0
BITMAP
E0
A0
C0
A0
A0
ENDCHAR
STARTCHAR 0073
ENCODING 83
SWIDTH 666 0
DWIDTH 4 0
BBX 3 5 0 0
BITMAP
60
80
E0
20
C0
ENDCHAR
STARTCHAR 0074
ENCODING 84
SWIDTH 666 0
DWIDTH 4 0
BBX 3 5 0 0
BITMAP
E0
40
40
40
40
ENDCHAR
STARTCHAR 0075
ENCODING 85
SWIDTH 666 0
DWIDTH 4 0
BBX 3 5 0 0
BITMAP
A0
A0
A0
A0
60
ENDCHAR
STARTCHAR 0076
ENCODING 86
SWIDTH 666 0
DWIDTH 4 0
BBX 3 5 0 0
BITMAP
A0
A0
A0
E0
40
ENDCHAR
STARTCHAR 0077
ENCODING 87
SWIDTH 666 0
DWIDTH 4 0
BBX 3 5 0 0
BITMAP
A0
A0
A0
E0
E0
ENDCHAR
STARTCHAR 0078
ENCODING 88
SWIDTH 666 0
DWIDTH 4 0
BBX 3 5 0 0
BITMAP
A0
A0
40
A0
A0
ENDCHAR
STARTCHAR 0079
ENCODING 89
SWIDTH 666 0
DWIDTH 4 0
BBX 3 5 0 0
BITMAP
A0
A0
E0
20
E0
ENDCHAR
STARTCHAR 007A
ENCODING 90
SWIDTH 666 0
DWIDTH 4 0
BBX 3 5 0 0
BITMAP
E0
20
40
80
E0
ENDCHAR
STARTCHAR 005B
ENCODING 91
SWIDTH 666 0
DWIDTH 4 0
BBX 2 5 0 0
BITMAP
C0
80
80
80
C0
ENDCHAR
STARTCHAR 005C
ENCODING 92
SWIDTH 666 0
DWIDTH 4 0
BBX 3 5 0 0
BITMAP
80
40
40
40
20
ENDCHAR
STARTCHAR 005D
ENCODING 93
SWIDTH 666 0
DWIDTH 4 0
BBX 2 5 1 0
BITMAP
C0
40
40
40
C0
ENDCHAR
STARTCHAR 005E
ENCODING 94
SWIDTH 666 0
DWIDTH 4 0
BBX 3 2 0 3
BITMAP
40
A0
ENDCHAR
STARTCHAR 005F
ENCODING 95
SWIDTH 666 0
DWIDTH 4 0
BBX 3 1 0 0
BITMAP
E0
ENDCHAR
STARTCHAR 0060
ENCODING 96
SWIDTH 666 0
DWIDTH 4 0
BBX 2 2 1 3
BITMAP
80
40
ENDCHAR
STARTCHAR 0041
ENCODING 97
SWIDTH 666 0
DWIDTH 4 0
BBX 3 4 0 0
BITMAP
60
A0
E0
A0
ENDCHAR
STARTCHAR 0042
ENCODING 98
SWIDTH 666 0
DWIDTH 4 0
BBX 3 4 0 0
BITMAP
C0
C0
A0
E0
ENDCHAR
STARTCHAR 0043
ENCODING 99
SWIDTH 666 0
DWIDTH 4 0
BBX 3 4 0 0
BITMAP
60
80
80
60
ENDCHAR
STARTCHAR 0044
ENCODING 100
SWIDTH 666 0
DWIDTH 4 0
BBX 3 4 0 0
BITMAP
C0
A0
A0
C0
ENDCHAR
STARTCHAR 0045
ENCODING 101
SWIDTH 666 0
DWIDTH 4 0
BBX 3 4 0 0
BITMAP
E0
C0
80
60
ENDCHAR
STARTCHAR 0046
ENCODING 102
SWIDTH 666 0
DWIDTH 4 0
BBX 3 4 0 0
BITMAP
E0
C0
80
80
ENDCHAR
STARTCHAR 0047
ENCODING 103
SWIDTH 666 0
DWIDTH 4 0
BBX 3 4 0 0
BITMAP
60
80
A0
E0
ENDCHAR
STARTCHAR 0048
ENCODING 104
SWIDTH 666 0
DWIDTH 4 0
BBX 3 4 0 0
BITMAP
A0
A0
E0
A0
ENDCHAR
STARTCHAR 0049
ENCODING 105
SWIDTH 666 0
DWIDTH 4 0
BBX 3 4 0 0
BITMAP
E0
40
40
E0
ENDCHAR
STARTCHAR 004A
ENCODING 106
SWIDTH 666 0
DWIDTH 4 0
BBX 3 4 0 0
BITMAP
E0
40
40
C0
ENDCHAR
STARTCHAR 004B
ENCODING 107
SWIDTH 666 0
DWIDTH 4 0
BBX 3 4 0 0
BITMAP
A0
C0
A0
A0
ENDCHAR
STARTCHAR 004C
ENCODING 108
SWIDTH 666 0
DWIDTH 4 0
BBX 3 4 0 0
BITMAP
80
80
80
60
ENDCHAR
STARTCHAR 004D
ENCODING 109
SWIDTH 666 0
DWIDTH 4 0
BBX 3 4 0 0
BITMAP
E0
E0
A0
A0
ENDCHAR
STARTCHAR 004E
ENCODING 110
SWIDTH 666 0
DWIDTH 4 0
BBX 3 4 0 0
BITMAP
C0
A0
A0
A0
ENDCHAR
STARTCHAR 004F
ENCODING 111
SWIDTH 666 0
DWIDTH 4 0
BBX 3 4 0 0
BITMAP
60
A0
A0
C0
ENDCHAR
STARTCHAR 0050
ENCODING 112
SWIDTH 666 0
DWIDTH 4 0
BBX 3 4 0 0
BITMAP
60
A0
E0
80
ENDCHAR
STARTCHAR 0051
ENCODING 113
SWIDTH 666 0
DWIDTH 4 0
BBX 3 4 0 0
BITMAP
40
A0
C0
60
ENDCHAR
STARTCHAR 0052
ENCODING 114
SWIDTH 666 0
DWIDTH 4 0
BBX 3 4 0 0
BITMAP
C0
A0
C0
A0
ENDCHAR
STARTCHAR 0053
ENCODING 115
SWIDTH 666 0
DWIDTH 4 0
BBX 3 4 0 0
BITMAP
60
80
20
C0
ENDCHAR
STARTCHAR 0054
ENCODING 116
SWIDTH 666 0
DWIDTH 4 0
BBX 3 4 0 0
BITMAP
E0
40
40
40
ENDCHAR
STARTCHAR 0055
ENCODING 117
SWIDTH 666 0
DWIDTH 4 0
BBX 3 4 0 0
BITMAP
A0
A0
A0
60
ENDCHAR
STARTCHAR 0056
ENCODING 118
SWIDTH 666 0
DWIDTH 4 0
BBX 3 4 0 0
BITMAP
A0
A0
E0
40
ENDCHAR
STARTCHAR 0057
ENCODING 119
SWIDTH 666 0
DWIDTH 4 0
BBX 3 4 0 0
BITMAP
A0
A0
E0
E0
ENDCHAR
STARTCHAR 0058
ENCODING 120
SWIDTH 666 0
DWIDTH 4 0
BBX 3 4 0 0
BITMAP
A0
40
40
A0
ENDCHAR
STARTCHAR 0059
ENCODING 121
SWIDTH 666 0
DWIDTH 4 0
BBX 3 4 0 0
BITMAP
A0
E0
20
C0
ENDCHAR
STARTCHAR 005A
ENCODING 122
SWIDTH 666 0
DWIDTH 4 0
BBX 3 4 0 0
BITMAP
E0
20
80
E0
ENDCHAR
STARTCHAR 007B
ENCODING 123
SWIDTH 666 0
DWIDTH 4 0
BBX 3 5 0 0
BITMAP
60
40
C0
40
60
ENDCHAR
STARTCHAR 007C
ENCODING 124
SWIDTH 666 0
DWIDTH 4 0
BBX 1 5 1 0
BITMAP
80
80
80
80
80
ENDCHAR
STARTCHAR 007D
ENCODING 125
SWIDTH 666 0
DWIDTH 4 0
BBX 3 5 0 0
BITMAP
C0
40
60
40
C0
ENDCHAR
STARTCHAR 007E
ENCODING 126
SWIDTH 666 0
DWIDTH 4 0
BBX 3 3 0 1
BITMAP
20
E0
80
ENDCHAR
STARTCHAR 007F
ENCODING 127
SWIDTH 166 0
DWIDTH 1 0
BBX 0 0 0 0
BITMAP
ENDCHAR
STARTCHAR 00A5
ENCODING 165
SWIDTH 666 0
DWIDTH 4 0
BBX 3 5 0 0
BITMAP
A0
E0
40
E0
40
ENDCHAR
STARTCHAR 00C0
ENCODING 192
SWIDTH 166 0
DWIDTH 1 0
BBX 0 0 0 0
BITMAP
ENDCHAR
STARTCHAR 00C1
ENCODING 193
SWIDTH 166 0
DWIDTH 1 0
BBX 0 0 0 0
BITMAP
ENDCHAR
STARTCHAR 00C2
ENCODING 194
SWIDTH 166 0
DWIDTH 1 0
BBX 0 0 0 0
BITMAP
ENDCHAR
STARTCHAR 00C3
ENCODING 195
SWIDTH 166 0
DWIDTH 1 0
BBX 0 0 0 0
BITMAP
ENDCHAR
STARTCHAR 00C4
ENCODING 196
SWIDTH 166 0
DWIDTH 1 0
BBX 0 0 0 0
BITMAP
ENDCHAR
STARTCHAR 00C5
ENCODING 197
SWIDTH 1333 0
DWIDTH 8 0
BBX 0 0 0 0
BITMAP
ENDCHAR
STARTCHAR 00C6
ENCODING 198
SWIDTH 1333 0
DWIDTH 8 0
BBX 0 0 0 0
BITMAP
ENDCHAR
STARTCHAR 00C7
ENCODING 199
SWIDTH 1333 0
DWIDTH 8 0
BBX 0 0 0 0
BITMAP
ENDCHAR
STARTCHAR 00C8
ENCODING 200
SWIDTH 166 0
DWIDTH 1 0
BBX 0 0 0 0
BITMAP
ENDCHAR
STARTCHAR 00C9
ENCODING 201
SWIDTH 1333 0
DWIDTH 8 0
BBX 0 0 0 0
BITMAP
ENDCHAR
STARTCHAR 00CA
ENCODING 202
SWIDTH 166 0
DWIDTH 1 0
BBX 0 0 0 0
BITMAP
ENDCHAR
STARTCHAR 00CB
ENCODING 203
SWIDTH 1333 0
DWIDTH 8 0
BBX 0 0 0 0
BITMAP
ENDCHAR
STARTCHAR 00CC
ENCODING 204
SWIDTH 166 0
DWIDTH 1 0
BBX 0 0 0 0
BITMAP
ENDCHAR
STARTCHAR 00CD
ENCODING 205
SWIDTH 1333 0
DWIDTH 8 0
BBX 0 0 0 0
BITMAP
ENDCHAR
STARTCHAR 00CE
ENCODING 206
SWIDTH 166 0
DWIDTH 1 0
BBX 0 0 0 0
BITMAP
ENDCHAR
STARTCHAR 00CF
ENCODING 207
SWIDTH 1333 0
DWIDTH 8 0
BBX 0 0 0 0
BITMAP
ENDCHAR
STARTCHAR 00D0
ENCODING 208
SWIDTH 166 0
DWIDTH 1 0
BBX 0 0 0 0
BITMAP
ENDCHAR
STARTCHAR 00D1
ENCODING 209
SWIDTH 166 0
DWIDTH 1 0
BBX 0 0 0 0
BITMAP
ENDCHAR
STARTCHAR 00D2
ENCODING 210
SWIDTH 166 0
DWIDTH 1 0
BBX 0 0 0 0
BITMAP
ENDCHAR
STARTCHAR 00D3
ENCODING 211
SWIDTH 1333 0
DWIDTH 8 0
BBX 0 0 0 0
BITMAP
ENDCHAR
STARTCHAR 00D4
ENCODING 212
SWIDTH 166 0
DWIDTH 1 0
BBX 0 0 0 0
BITMAP
ENDCHAR
STARTCHAR 00D5
ENCODING 213
SWIDTH 166 0
DWIDTH 1 0
BBX 0 0 0 0
BITMAP
ENDCHAR
STARTCHAR 00D6
ENCODING 214
SWIDTH 166 0
DWIDTH 1 0
BBX 0 0 0 0
BITMAP
ENDCHAR
STARTCHAR 00D7
ENCODING 215
SWIDTH 166 0
DWIDTH 1 0
BBX 0 0 0 0
BITMAP
ENDCHAR
STARTCHAR 00D8
ENCODING 216
SWIDTH 166 0
DWIDTH 1 0
BBX 0 0 0 0
BITMAP
ENDCHAR
STARTCHAR 00D9
ENCODING 217
SWIDTH 166 0
DWIDTH 1 0
BBX 0 0 0 0
BITMAP
ENDCHAR
STARTCHAR 02C7
ENCODING 711
SWIDTH 1333 0
DWIDTH 8 0
BBX 7 3 0 1
BITMAP
A0
4A
04
ENDCHAR
STARTCHAR 2016
ENCODING 8214
SWIDTH 666 0
DWIDTH 4 0
BBX 3 3 0 1
BITMAP
A0
A0
A0
ENDCHAR
STARTCHAR 2022
ENCODING 8226
SWIDTH 666 0
DWIDTH 4 0
BBX 1 1 1 2
BITMAP
80
ENDCHAR
STARTCHAR 2026
ENCODING 8230
SWIDTH 1333 0
DWIDTH 8 0
BBX 7 1 0 2
BITMAP
AA
ENDCHAR
STARTCHAR 2058
ENCODING 8280
SWIDTH 666 0
DWIDTH 4 0
BBX 3 3 0 1
BITMAP
A0
00
A0
ENDCHAR
STARTCHAR 2059
ENCODING 8281
SWIDTH 666 0
DWIDTH 4 0
BBX 3 3 0 1
BITMAP
A0
40
A0
ENDCHAR
STARTCHAR 2227
ENCODING 8743
SWIDTH 1333 0
DWIDTH 8 0
BBX 7 3 0 1
BITMAP
88
54
22
ENDCHAR
STARTCHAR 2302
ENCODING 8962
SWIDTH 1333 0
DWIDTH 8 0
BBX 7 5 0 0
BITMAP
38
7C
FE
54
5C
ENDCHAR
STARTCHAR 2588
ENCODING 9608
SWIDTH 1333 0
DWIDTH 8 0
BBX 7 5 0 0
BITMAP
FE
FE
FE
FE
FE
ENDCHAR
STARTCHAR 2591
ENCODING 9617
SWIDTH 1333 0
DWIDTH 8 0
BBX 7 5 0 0
BITMAP
88
22
88
22
88
ENDCHAR
STARTCHAR 2592
ENCODING 9618
SWIDTH 1333 0
DWIDTH 8 0
BBX 7 5 0 0
BITMAP
AA
54
AA
54
AA
ENDCHAR
STARTCHAR 25A0
ENCODING 9632
SWIDTH 666 0
DWIDTH 4 0
BBX 3 3 0 1
BITMAP
E0
E0
E0
ENDCHAR
STARTCHAR 25A1
ENCODING 9633
SWIDTH 666 0
DWIDTH 4 0
BBX 3 3 0 1
BITMAP
E0
A0
E0
ENDCHAR
STARTCHAR 25A4
ENCODING 9636
SWIDTH 1333 0
DWIDTH 8 0
BBX 7 5 0 0
BITMAP
FE
00
FE
00
FE
ENDCHAR
STARTCHAR 25A5
ENCODING 9637
SWIDTH 1333 0
DWIDTH 8 0
BBX 7 5 0 0
BITMAP
AA
AA
AA
AA
AA
ENDCHAR
STARTCHAR 25AE
ENCODING 9646
SWIDTH 666 0
DWIDTH 4 0
BBX 3 5 0 0
BITMAP
E0
E0
E0
E0
E0
ENDCHAR
STARTCHAR 25B6
ENCODING 9654
SWIDTH 666 0
DWIDTH 4 0
BBX 3 5 0 0
BITMAP
80
C0
E0
C0
80
ENDCHAR
STARTCHAR 25C0
ENCODING 9664
SWIDTH 666 0
DWIDTH 4 0
BBX 3 5 0 0
BITMAP
20
60
E0
60
20
ENDCHAR
STARTCHAR 25C6
ENCODING 9670
SWIDTH 1333 0
DWIDTH 8 0
BBX 5 5 1 0
BITMAP
20
70
F8
70
20
ENDCHAR
STARTCHAR 25CB
ENCODING 9675
SWIDTH 666 0
DWIDTH 4 0
BBX 3 3 0 1
BITMAP
40
A0
40
ENDCHAR
STARTCHAR 25CF
ENCODING 9679
SWIDTH 1333 0
DWIDTH 8 0
BBX 5 5 1 0
BITMAP
70
E8
F8
F8
70
ENDCHAR
STARTCHAR 25DC
ENCODING 9692
SWIDTH 1333 0
DWIDTH 8 0
BBX 7 5 0 0
BITMAP
10
20
C6
08
10
ENDCHAR
STARTCHAR 25DD
ENCODING 9693
SWIDTH 1333 0
DWIDTH 8 0
BBX 7 5 0 0
BITMAP
10
08
C6
20
10
ENDCHAR
STARTCHAR 2605
ENCODING 9733
SWIDTH 1333 0
DWIDTH 8 0
BBX 7 5 0 0
BITMAP
10
38
FE
7C
44
ENDCHAR
STARTCHAR 2609
ENCODING 9737
SWIDTH 1333 0
DWIDTH 8 0
BBX 7 5 0 0
BITMAP
38
6C
EE
6C
38
ENDCHAR
STARTCHAR 2665
ENCODING 9829
SWIDTH 1333 0
DWIDTH 8 0
BBX 5 5 1 0
BITMAP
D8
F8
F8
70
20
ENDCHAR
STARTCHAR 266A
ENCODING 9834
SWIDTH 1333 0
DWIDTH 8 0
BBX 5 5 1 0
BITMAP
38
20
20
E0
E0
ENDCHAR
STARTCHAR 273D
ENCODING 10045
SWIDTH 1333 0
DWIDTH 8 0
BBX 5 5 1 0
BITMAP
40
78
70
F0
10
ENDCHAR
STARTCHAR 274E
ENCODING 10062
SWIDTH 1333 0
DWIDTH 8 0
BBX 7 5 0 0
BITMAP
7C
D6
EE
D6
7C
ENDCHAR
STARTCHAR 27A1
ENCODING 10145
SWIDTH 1333 0
DWIDTH 8 0
BBX 7 5 0 0
BITMAP
7C
CE
C6
CE
7C
ENDCHAR
STARTCHAR 29D7
ENCODING 10711
SWIDTH 1333 0
DWIDTH 8 0
BBX 5 5 1 0
BITMAP
F8
70
20
70
F8
ENDCHAR
STARTCHAR 2B05
ENCODING 11013
SWIDTH 1333 0
DWIDTH 8 0
BBX 7 5 0 0
BITMAP
7C
E6
C6
E6
7C
ENDCHAR
STARTCHAR 2B06
ENCODING 11014
SWIDTH 1333 0
DWIDTH 8 0
BBX 7 5 0 0
BITMAP
7C
EE
C6
C6
7C
ENDCHAR
STARTCHAR 2B07
ENCODING 11015
SWIDTH 1333 0
DWIDTH 8 0
BBX 7 5 0 0
BITMAP
7C
C6
C6
EE
7C
ENDCHAR
STARTCHAR 3001
ENCODING 12289
SWIDTH 666 0
DWIDTH 4 0
BBX 2 2 0 0
BITMAP
80
40
ENDCHAR
STARTCHAR 3002
ENCODING 12290
SWIDTH 666 0
DWIDTH 4 0
BBX 2 2 0 0
BITMAP
C0
C0
ENDCHAR
STARTCHAR 300C
ENCODING 12300
SWIDTH 666 0
DWIDTH 4 0
BBX 3 4 0 1
BITMAP
E0
80
80
80
ENDCHAR
STARTCHAR 300D
ENCODING 12301
SWIDTH 666 0
DWIDTH 4 0
BBX 3 4 0 0
BITMAP
20
20
20
E0
ENDCHAR
STARTCHAR 3042
ENCODING 12354
SWIDTH 1333 0
DWIDTH 8 0
BBX 6 5 0 0
BITMAP
70
20
78
B4
64
ENDCHAR
STARTCHAR 3044
ENCODING 12356
SWIDTH 1333 0
DWIDTH 8 0
BBX 6 5 1 0
BITMAP
88
84
84
A4
40
ENDCHAR
STARTCHAR 3046
ENCODING 12358
SWIDTH 1333 0
DWIDTH 8 0
BBX 5 5 2 0
BITMAP
60
F0
08
08
70
ENDCHAR
STARTCHAR 3048
ENCODING 12360
SWIDTH 1333 0
DWIDTH 8 0
BBX 5 5 1 0
BITMAP
20
F0
20
48
B0
ENDCHAR
STARTCHAR 304A
ENCODING 12362
SWIDTH 1333 0
DWIDTH 8 0
BBX 7 5 0 0
BITMAP
72
20
7C
A2
64
ENDCHAR
STARTCHAR 304B
ENCODING 12363
SWIDTH 1333 0
DWIDTH 8 0
BBX 7 5 0 0
BITMAP
44
FA
48
48
50
ENDCHAR
STARTCHAR 304D
ENCODING 12365
SWIDTH 1333 0
DWIDTH 8 0
BBX 6 5 0 0
BITMAP
78
10
3C
88
60
ENDCHAR
STARTCHAR 304F
ENCODING 12367
SWIDTH 1333 0
DWIDTH 8 0
BBX 4 5 1 0
BITMAP
10
60
80
60
10
ENDCHAR
STARTCHAR 3051
ENCODING 12369
SWIDTH 1333 0
DWIDTH 8 0
BBX 6 5 1 0
BITMAP
88
BC
88
88
90
ENDCHAR
STARTCHAR 3053
ENCODING 12371
SWIDTH 1333 0
DWIDTH 8 0
BBX 5 5 1 0
BITMAP
F0
08
00
80
78
ENDCHAR
STARTCHAR 3055
ENCODING 12373
SWIDTH 1333 0
DWIDTH 8 0
BBX 5 5 1 0
BITMAP
20
78
10
80
60
ENDCHAR
STARTCHAR 3057
ENCODING 12375
SWIDTH 1333 0
DWIDTH 8 0
BBX 5 5 1 0
BITMAP
80
80
80
88
70
ENDCHAR
STARTCHAR 3059
ENCODING 12377
SWIDTH 1333 0
DWIDTH 8 0
BBX 5 5 1 0
BITMAP
20
F8
20
60
20
ENDCHAR
STARTCHAR 305B
ENCODING 12379
SWIDTH 1333 0
DWIDTH 8 0
BBX 6 5 0 0
BITMAP
48
FC
48
40
38
ENDCHAR
STARTCHAR 305D
ENCODING 12381
SWIDTH 1333 0
DWIDTH 8 0
BBX 6 5 1 0
BITMAP
78
10
FC
40
38
ENDCHAR
STARTCHAR 305F
ENCODING 12383
SWIDTH 1333 0
DWIDTH 8 0
BBX 6 5 0 0
BITMAP
40
E0
4C
40
4C
ENDCHAR
STARTCHAR 3061
ENCODING 12385
SWIDTH 1333 0
DWIDTH 8 0
BBX 5 5 0 0
BITMAP
F0
40
70
08
38
ENDCHAR
STARTCHAR 3063
ENCODING 12387
SWIDTH 1333 0
DWIDTH 8 0
BBX 4 3 1 0
BITMAP
E0
10
20
ENDCHAR
STARTCHAR 3064
ENCODING 12388
SWIDTH 1333 0
DWIDTH 8 0
BBX 6 5 1 0
BITMAP
F8
04
04
08
30
ENDCHAR
STARTCHAR 3066
ENCODING 12390
SWIDTH 1333 0
DWIDTH 8 0
BBX 5 5 1 0
BITMAP
F8
10
20
20
10
ENDCHAR
STARTCHAR 3068
ENCODING 12392
SWIDTH 1333 0
DWIDTH 8 0
BBX 5 5 1 0
BITMAP
20
38
40
80
78
ENDCHAR
STARTCHAR 306A
ENCODING 12394
SWIDTH 1333 0
DWIDTH 8 0
BBX 7 5 0 0
BITMAP
4C
E0
48
1E
18
ENDCHAR
STARTCHAR 306B
ENCODING 12395
SWIDTH 1333 0
DWIDTH 8 0
BBX 6 5 1 0
BITMAP
BC
84
80
A0
9C
ENDCHAR
STARTCHAR 306C
ENCODING 12396
SWIDTH 1333 0
DWIDTH 8 0
BBX 7 5 0 0
BITMAP
90
7C
D2
B6
66
ENDCHAR
STARTCHAR 306D
ENCODING 12397
SWIDTH 1333 0
DWIDTH 8 0
BBX 7 5 0 0
BITMAP
58
E4
44
CE
4C
ENDCHAR
STARTCHAR 306E
ENCODING 12398
SWIDTH 1333 0
DWIDTH 8 0
BBX 7 5 0 0
BITMAP
3C
52
92
92
62
ENDCHAR
STARTCHAR 306F
ENCODING 12399
SWIDTH 1333 0
DWIDTH 8 0
BBX 5 5 1 0
BITMAP
90
B8
90
B8
B0
ENDCHAR
STARTCHAR 3072
ENCODING 12402
SWIDTH 1333 0
DWIDTH 8 0
BBX 7 5 0 0
BITMAP
C4
46
44
44
38
ENDCHAR
STARTCHAR 3075
ENCODING 12405
SWIDTH 1333 0
DWIDTH 8 0
BBX 7 5 0 0
BITMAP
30
00
10
54
B2
ENDCHAR
STARTCHAR 3078
ENCODING 12408
SWIDTH 1333 0
DWIDTH 8 0
BBX 7 4 0 0
BITMAP
30
48
84
02
ENDCHAR
STARTCHAR 307B
ENCODING 12411
SWIDTH 1333 0
DWIDTH 8 0
BBX 7 5 0 0
BITMAP
BE
9E
88
BC
BA
ENDCHAR
STARTCHAR 307E
ENCODING 12414
SWIDTH 1333 0
DWIDTH 8 0
BBX 5 5 1 0
BITMAP
F8
78
20
F0
E8
ENDCHAR
STARTCHAR 307F
ENCODING 12415
SWIDTH 1333 0
DWIDTH 8 0
BBX 6 5 1 0
BITMAP
C0
48
FC
C8
10
ENDCHAR
STARTCHAR 3080
ENCODING 12416
SWIDTH 1333 0
DWIDTH 8 0
BBX 6 5 1 0
BITMAP
48
E4
40
C4
78
ENDCHAR
STARTCHAR 3081
ENCODING 12417
SWIDTH 1333 0
DWIDTH 8 0
BBX 6 5 1 0
BITMAP
A0
78
B4
C4
18
ENDCHAR
STARTCHAR 3082
ENCODING 12418
SWIDTH 1333 0
DWIDTH 8 0
BBX 6 5 1 0
BITMAP
F0
40
F0
44
38
ENDCHAR
STARTCHAR 3083
ENCODING 12419
SWIDTH 1333 0
DWIDTH 8 0
BBX 5 4 0 0
BITMAP
50
F8
48
20
ENDCHAR
STARTCHAR 3084
ENCODING 12420
SWIDTH 1333 0
DWIDTH 8 0
BBX 5 5 1 0
BITMAP
50
F8
48
20
20
ENDCHAR
STARTCHAR 3085
ENCODING 12421
SWIDTH 1333 0
DWIDTH 8 0
BBX 5 4 0 0
BITMAP
20
F0
A8
B0
ENDCHAR
STARTCHAR 3086
ENCODING 12422
SWIDTH 1333 0
DWIDTH 8 0
BBX 6 5 1 0
BITMAP
B8
D4
94
18
20
ENDCHAR
STARTCHAR 3087
ENCODING 12423
SWIDTH 1333 0
DWIDTH 8 0
BBX 3 4 1 0
BITMAP
40
60
C0
E0
ENDCHAR
STARTCHAR 3088
ENCODING 12424
SWIDTH 1333 0
DWIDTH 8 0
BBX 4 5 1 0
BITMAP
40
70
40
F0
C0
ENDCHAR
STARTCHAR 3089
ENCODING 12425
SWIDTH 1333 0
DWIDTH 8 0
BBX 5 5 1 0
BITMAP
20
80
F8
08
70
ENDCHAR
STARTCHAR 308A
ENCODING 12426
SWIDTH 1333 0
DWIDTH 8 0
BBX 5 5 1 0
BITMAP
88
88
C8
08
30
ENDCHAR
STARTCHAR 308B
ENCODING 12427
SWIDTH 1333 0
DWIDTH 8 0
BBX 6 5 1 0
BITMAP
F8
30
48
9C
18
ENDCHAR
STARTCHAR 308C
ENCODING 12428
SWIDTH 1333 0
DWIDTH 8 0
BBX 6 5 1 0
BITMAP
40
D8
68
C8
4C
ENDCHAR
STARTCHAR 308D
ENCODING 12429
SWIDTH 1333 0
DWIDTH 8 0
BBX 6 5 1 0
BITMAP
F8
30
48
84
18
ENDCHAR
STARTCHAR 308E
ENCODING 12430
SWIDTH 1333 0
DWIDTH 8 0
BBX 0 0 0 0
BITMAP
ENDCHAR
STARTCHAR 308F
ENCODING 12431
SWIDTH 1333 0
DWIDTH 8 0
BBX 6 5 0 0
BITMAP
58
E4
44
C4
48
ENDCHAR
STARTCHAR 3092
ENCODING 12434
SWIDTH 1333 0
DWIDTH 8 0
BBX 6 5 1 0
BITMAP
E0
4C
70
28
3C
ENDCHAR
STARTCHAR 3093
ENCODING 12435
SWIDTH 1333 0
DWIDTH 8 0
BBX 6 5 0 0
BITMAP
20
40
60
D4
98
ENDCHAR
STARTCHAR 309B
ENCODING 12443
SWIDTH 666 0
DWIDTH 4 0
BBX 3 2 0 3
BITMAP
A0
A0
ENDCHAR
STARTCHAR 309C
ENCODING 12444
SWIDTH 666 0
DWIDTH 4 0
BBX 3 3 0 2
BITMAP
40
A0
40
ENDCHAR
STARTCHAR 30A2
ENCODING 12450
SWIDTH 1333 0
DWIDTH 8 0
BBX 5 5 1 0
BITMAP
F8
08
50
40
80
ENDCHAR
STARTCHAR 30A4
ENCODING 12452
SWIDTH 1333 0
DWIDTH 8 0
BBX 5 5 1 0
BITMAP
18
20
E0
20
20
ENDCHAR
STARTCHAR 30A6
ENCODING 12454
SWIDTH 1333 0
DWIDTH 8 0
BBX 5 5 1 0
BITMAP
20
F8
88
08
30
ENDCHAR
STARTCHAR 30A8
ENCODING 12456
SWIDTH 1333 0
DWIDTH 8 0
BBX 5 5 1 0
BITMAP
F8
20
20
20
F8
ENDCHAR
STARTCHAR 30AA
ENCODING 12458
SWIDTH 1333 0
DWIDTH 8 0
BBX 6 5 1 0
BITMAP
10
FC
30
50
90
ENDCHAR
STARTCHAR 30AB
ENCODING 12459
SWIDTH 1333 0
DWIDTH 8 0
BBX 5 5 1 0
BITMAP
40
F8
48
88
98
ENDCHAR
STARTCHAR 30AD
ENCODING 12461
SWIDTH 1333 0
DWIDTH 8 0
BBX 5 5 1 0
BITMAP
20
F8
20
F8
20
ENDCHAR
STARTCHAR 30AF
ENCODING 12463
SWIDTH 1333 0
DWIDTH 8 0
BBX 5 5 1 0
BITMAP
78
48
88
10
20
ENDCHAR
STARTCHAR 30B1
ENCODING 12465
SWIDTH 1333 0
DWIDTH 8 0
BBX 6 5 1 0
BITMAP
40
7C
90
10
20
ENDCHAR
STARTCHAR 30B3
ENCODING 12467
SWIDTH 1333 0
DWIDTH 8 0
BBX 5 5 1 0
BITMAP
F8
08
08
08
F8
ENDCHAR
STARTCHAR 30B5
ENCODING 12469
SWIDTH 1333 0
DWIDTH 8 0
BBX 6 5 1 0
BITMAP
48
FC
48
08
10
ENDCHAR
STARTCHAR 30B7
ENCODING 12471
SWIDTH 1333 0
DWIDTH 8 0
BBX 5 5 1 0
BITMAP
C0
08
C8
10
60
ENDCHAR
STARTCHAR 30B9
ENCODING 12473
SWIDTH 1333 0
DWIDTH 8 0
BBX 5 5 1 0
BITMAP
F8
08
10
30
C8
ENDCHAR
STARTCHAR 30BB
ENCODING 12475
SWIDTH 1333 0
DWIDTH 8 0
BBX 5 5 1 0
BITMAP
40
F8
48
40
38
ENDCHAR
STARTCHAR 30BD
ENCODING 12477
SWIDTH 1333 0
DWIDTH 8 0
BBX 5 5 1 0
BITMAP
88
48
08
10
60
ENDCHAR
STARTCHAR 30BF
ENCODING 12479
SWIDTH 1333 0
DWIDTH 8 0
BBX 6 5 0 0
BITMAP
7C
44
B4
0C
30
ENDCHAR
STARTCHAR 30C1
ENCODING 12481
SWIDTH 1333 0
DWIDTH 8 0
BBX 5 5 1 0
BITMAP
70
20
F8
20
40
ENDCHAR
STARTCHAR 30C3
ENCODING 12483
SWIDTH 1333 0
DWIDTH 8 0
BBX 5 5 0 0
BITMAP
A0
08
08
10
60
ENDCHAR
STARTCHAR 30C4
ENCODING 12484
SWIDTH 1333 0
DWIDTH 8 0
BBX 5 5 1 0
BITMAP
A8
A8
08
10
60
ENDCHAR
STARTCHAR 30C6
ENCODING 12486
SWIDTH 1333 0
DWIDTH 8 0
BBX 5 5 1 0
BITMAP
70
00
F8
20
40
ENDCHAR
STARTCHAR 30C8
ENCODING 12488
SWIDTH 1333 0
DWIDTH 8 0
BBX 4 5 2 0
BITMAP
80
80
E0
90
80
ENDCHAR
STARTCHAR 30CA
ENCODING 12490
SWIDTH 1333 0
DWIDTH 8 0
BBX 5 5 1 0
BITMAP
20
F8
20
20
40
ENDCHAR
STARTCHAR 30CB
ENCODING 12491
SWIDTH 1333 0
DWIDTH 8 0
BBX 5 4 1 0
BITMAP
70
00
00
F8
ENDCHAR
STARTCHAR 30CC
ENCODING 12492
SWIDTH 1333 0
DWIDTH 8 0
BBX 5 5 1 0
BITMAP
F8
08
28
10
68
ENDCHAR
STARTCHAR 30CD
ENCODING 12493
SWIDTH 1333 0
DWIDTH 8 0
BBX 6 5 1 0
BITMAP
20
F8
18
F4
20
ENDCHAR
STARTCHAR 30CE
ENCODING 12494
SWIDTH 1333 0
DWIDTH 8 0
BBX 5 5 1 0
BITMAP
08
08
08
10
E0
ENDCHAR
STARTCHAR 30CF
ENCODING 12495
SWIDTH 1333 0
DWIDTH 8 0
BBX 6 5 1 0
BITMAP
10
48
48
44
84
ENDCHAR
STARTCHAR 30D2
ENCODING 12498
SWIDTH 1333 0
DWIDTH 8 0
BBX 4 5 1 0
BITMAP
80
F0
80
80
70
ENDCHAR
STARTCHAR 30D5
ENCODING 12501
SWIDTH 1333 0
DWIDTH 8 0
BBX 5 5 1 0
BITMAP
F8
08
08
10
60
ENDCHAR
STARTCHAR 30D8
ENCODING 12504
SWIDTH 1333 0
DWIDTH 8 0
BBX 7 4 0 1
BITMAP
30
48
84
02
ENDCHAR
STARTCHAR 30DB
ENCODING 12507
SWIDTH 1333 0
DWIDTH 8 0
BBX 5 5 1 0
BITMAP
20
F8
20
A8
A8
ENDCHAR
STARTCHAR 30DE
ENCODING 12510
SWIDTH 1333 0
DWIDTH 8 0
BBX 5 5 1 0
BITMAP
F8
08
50
20
10
ENDCHAR
STARTCHAR 30DF
ENCODING 12511
SWIDTH 1333 0
DWIDTH 8 0
BBX 5 5 1 0
BITMAP
78
00
F8
00
F0
ENDCHAR
STARTCHAR 30E0
ENCODING 12512
SWIDTH 1333 0
DWIDTH 8 0
BBX 6 5 1 0
BITMAP
20
40
48
84
FC
ENDCHAR
STARTCHAR 30E1
ENCODING 12513
SWIDTH 1333 0
DWIDTH 8 0
BBX 6 5 1 0
BITMAP
04
28
10
2C
C0
ENDCHAR
STARTCHAR 30E2
ENCODING 12514
SWIDTH 1333 0
DWIDTH 8 0
BBX 5 5 1 0
BITMAP
F0
40
F0
40
78
ENDCHAR
STARTCHAR 30E3
ENCODING 12515
SWIDTH 1333 0
DWIDTH 8 0
BBX 4 4 1 0
BITMAP
40
F0
50
40
ENDCHAR
STARTCHAR 30E4
ENCODING 12516
SWIDTH 1333 0
DWIDTH 8 0
BBX 5 5 1 0
BITMAP
40
F8
48
40
40
ENDCHAR
STARTCHAR 30E5
ENCODING 12517
SWIDTH 1333 0
DWIDTH 8 0
BBX 4 3 1 0
BITMAP
60
20
F0
ENDCHAR
STARTCHAR 30E6
ENCODING 12518
SWIDTH 1333 0
DWIDTH 8 0
BBX 5 5 1 0
BITMAP
70
10
10
10
F8
ENDCHAR
STARTCHAR 30E7
ENCODING 12519
SWIDTH 1333 0
DWIDTH 8 0
BBX 3 4 3 0
BITMAP
E0
60
20
E0
ENDCHAR
STARTCHAR 30E8
ENCODING 12520
SWIDTH 1333 0
DWIDTH 8 0
BBX 4 5 1 0
BITMAP
F0
10
F0
10
F0
ENDCHAR
STARTCHAR 30E9
ENCODING 12521
SWIDTH 1333 0
DWIDTH 8 0
BBX 5 5 1 0
BITMAP
F8
00
F8
08
30
ENDCHAR
STARTCHAR 30EA
ENCODING 12522
SWIDTH 1333 0
DWIDTH 8 0
BBX 4 5 2 0
BITMAP
90
90
90
10
20
ENDCHAR
STARTCHAR 30EB
ENCODING 12523
SWIDTH 1333 0
DWIDTH 8 0
BBX 6 5 1 0
BITMAP
50
50
50
54
98
ENDCHAR
STARTCHAR 30EC
ENCODING 12524
SWIDTH 1333 0
DWIDTH 8 0
BBX 5 5 1 0
BITMAP
80
80
88
90
E0
ENDCHAR
STARTCHAR 30ED
ENCODING 12525
SWIDTH 1333 0
DWIDTH 8 0
BBX 5 5 1 0
BITMAP
F8
88
88
88
F8
ENDCHAR
STARTCHAR 30EF
ENCODING 12527
SWIDTH 1333 0
DWIDTH 8 0
BBX 5 5 1 0
BITMAP
F8
88
08
10
60
ENDCHAR
STARTCHAR 30F2
ENCODING 12530
SWIDTH 1333 0
DWIDTH 8 0
BBX 5 5 1 0
BITMAP
F8
08
78
08
30
ENDCHAR
STARTCHAR 30F3
ENCODING 12531
SWIDTH 1333 0
DWIDTH 8 0
BBX 5 5 1 0
BITMAP
C0
08
08
10
E0
ENDCHAR
STARTCHAR C6C3
ENCODING 50883
SWIDTH 1333 0
DWIDTH 8 0
BBX 5 5 1 0
BITMAP
70
70
F8
70
50
ENDCHAR
STARTCHARdegree
ENCODING 176
SWIDTH 666 0
DWIDTH 4 0
BBX 1 1 1 4
BITMAP
80
ENDCHAR
STARTCHAR arrowleft
ENCODING 8592
SWIDTH 833 0
DWIDTH 5 0
BBX 4 5 0 0
BITMAP
20
40
F0
40
20
ENDCHAR
STARTCHAR arrowup
ENCODING 8593
SWIDTH 666 0
DWIDTH 4 0
BBX 3 5 0 0
BITMAP
40
E0
40
40
40
ENDCHAR
STARTCHAR arrowright
ENCODING 8594
SWIDTH 833 0
DWIDTH 5 0
BBX 4 5 0 0
BITMAP
40
20
F0
20
40
ENDCHAR
STARTCHAR arrowdown
ENCODING 8595
SWIDTH 666 0
DWIDTH 4 0
BBX 3 5 0 0
BITMAP
40
40
40
E0
40
ENDCHAR
ENDFONT
