STARTFONT 2.1
COMMENT Font: Pixelify Sans (7px Proportional)
COMMENT Author: Stefie Justprince (eifetx)
COMMENT License: SIL Open Font License 1.1 (https://scripts.sil.org/OFL)
COMMENT Source: https://github.com/eifetx/Pixelify-Sans
FONT -FreeType-Pixelify Sans-Medium-R-Normal--11-110-72-72-P-52-ISO10646-1
SIZE 11 72 72
FONTBOUNDINGBOX 12 14 0 -3
STARTPROPERTIES 19
FOUNDRY "FreeType"
FAMILY_NAME "Pixelify Sans"
WEIGHT_NAME "Medium"
SLANT "R"
SETWIDTH_NAME "Normal"
ADD_STYLE_NAME ""
PIXEL_SIZE 11
POINT_SIZE 110
RESOLUTION_X 72
RESOLUTION_Y 72
SPACING "P"
AVERAGE_WIDTH 52
CHARSET_REGISTRY "ISO10646"
CHARSET_ENCODING "1"
FONT_ASCENT 10
FONT_DESCENT 3
COPYRIGHT "Copyright 2021 The Pixelify Sans Project Authors (https://github.com/eifetx/Pixelify-Sans)"
_OTF_FONTFILE "PixelifySans-Regular.ttf"
_OTF_PSNAME "PixelifySans-Regular"
ENDPROPERTIES
CHARS 574
STARTCHAR 0020
ENCODING 32
SWIDTH 181 0
DWIDTH 2 0
BBX 0 0 0 0
BITMAP
ENDCHAR
STARTCHAR 0021
ENCODING 33
SWIDTH 181 0
DWIDTH 2 0
BBX 1 7 1 0
BITMAP
80
80
80
80
80
00
80
ENDCHAR
STARTCHAR 0022
ENCODING 34
SWIDTH 454 0
DWIDTH 5 0
BBX 3 2 1 5
BITMAP
A0
A0
ENDCHAR
STARTCHAR 0023
ENCODING 35
SWIDTH 636 0
DWIDTH 7 0
BBX 6 7 1 0
BITMAP
48
48
FC
48
48
FC
48
ENDCHAR
STARTCHAR 0024
ENCODING 36
SWIDTH 545 0
DWIDTH 6 0
BBX 5 9 1 -1
BITMAP
20
70
88
80
70
08
88
70
20
ENDCHAR
STARTCHAR 0025
ENCODING 37
SWIDTH 909 0
DWIDTH 10 0
BBX 8 7 1 0
BITMAP
42
E4
48
10
22
47
82
ENDCHAR
STARTCHAR 0026
ENCODING 38
SWIDTH 636 0
DWIDTH 7 0
BBX 6 7 1 0
BITMAP
70
88
50
20
50
88
74
ENDCHAR
STARTCHAR 0027
ENCODING 39
SWIDTH 272 0
DWIDTH 3 0
BBX 1 2 1 5
BITMAP
80
80
ENDCHAR
STARTCHAR 0028
ENCODING 40
SWIDTH 363 0
DWIDTH 4 0
BBX 3 10 1 -2
BITMAP
20
20
40
40
80
80
40
40
20
20
ENDCHAR
STARTCHAR 0029
ENCODING 41
SWIDTH 363 0
DWIDTH 4 0
BBX 3 10 0 -2
BITMAP
80
80
40
40
20
20
40
40
80
80
ENDCHAR
STARTCHAR 002A
ENCODING 42
SWIDTH 272 0
DWIDTH 3 0
BBX 1 2 1 5
BITMAP
80
80
ENDCHAR
STARTCHAR 002B
ENCODING 43
SWIDTH 636 0
DWIDTH 7 0
BBX 5 5 1 1
BITMAP
20
20
F8
20
20
ENDCHAR
STARTCHAR 002C
ENCODING 44
SWIDTH 272 0
DWIDTH 3 0
BBX 1 2 1 -1
BITMAP
80
80
ENDCHAR
STARTCHAR 002D
ENCODING 45
SWIDTH 363 0
DWIDTH 4 0
BBX 3 1 0 2
BITMAP
E0
ENDCHAR
STARTCHAR 002E
ENCODING 46
SWIDTH 181 0
DWIDTH 2 0
BBX 1 1 1 0
BITMAP
80
ENDCHAR
STARTCHAR 002F
ENCODING 47
SWIDTH 545 0
DWIDTH 6 0
BBX 4 7 1 0
BITMAP
10
20
20
40
40
80
80
ENDCHAR
STARTCHAR 0030
ENCODING 48
SWIDTH 545 0
DWIDTH 6 0
BBX 5 7 1 0
BITMAP
70
88
88
88
88
88
70
ENDCHAR
STARTCHAR 0031
ENCODING 49
SWIDTH 363 0
DWIDTH 4 0
BBX 3 7 1 0
BITMAP
40
A0
20
20
20
20
20
ENDCHAR
STARTCHAR 0032
ENCODING 50
SWIDTH 545 0
DWIDTH 6 0
BBX 5 7 1 0
BITMAP
70
88
08
70
80
88
70
ENDCHAR
STARTCHAR 0033
ENCODING 51
SWIDTH 545 0
DWIDTH 6 0
BBX 5 7 1 0
BITMAP
70
88
08
70
08
88
70
ENDCHAR
STARTCHAR 0034
ENCODING 52
SWIDTH 545 0
DWIDTH 6 0
BBX 5 7 1 0
BITMAP
18
28
48
88
F8
08
08
ENDCHAR
STARTCHAR 0035
ENCODING 53
SWIDTH 545 0
DWIDTH 6 0
BBX 5 7 1 0
BITMAP
F8
80
80
70
08
88
70
ENDCHAR
STARTCHAR 0036
ENCODING 54
SWIDTH 545 0
DWIDTH 6 0
BBX 5 7 1 0
BITMAP
70
88
80
F0
88
88
70
ENDCHAR
STARTCHAR 0037
ENCODING 55
SWIDTH 545 0
DWIDTH 6 0
BBX 5 7 1 0
BITMAP
70
88
08
08
08
08
08
ENDCHAR
STARTCHAR 0038
ENCODING 56
SWIDTH 545 0
DWIDTH 6 0
BBX 5 7 1 0
BITMAP
70
88
88
70
88
88
70
ENDCHAR
STARTCHAR 0039
ENCODING 57
SWIDTH 545 0
DWIDTH 6 0
BBX 5 7 1 0
BITMAP
70
88
88
78
08
88
70
ENDCHAR
STARTCHAR 003A
ENCODING 58
SWIDTH 181 0
DWIDTH 2 0
BBX 1 3 1 1
BITMAP
80
00
80
ENDCHAR
STARTCHAR 003B
ENCODING 59
SWIDTH 272 0
DWIDTH 3 0
BBX 1 4 1 0
BITMAP
80
00
80
80
ENDCHAR
STARTCHAR 003C
ENCODING 60
SWIDTH 636 0
DWIDTH 7 0
BBX 5 9 1 -1
BITMAP
08
10
20
40
80
40
20
10
08
ENDCHAR
STARTCHAR 003D
ENCODING 61
SWIDTH 636 0
DWIDTH 7 0
BBX 4 3 1 2
BITMAP
F0
00
F0
ENDCHAR
STARTCHAR 003E
ENCODING 62
SWIDTH 636 0
DWIDTH 7 0
BBX 5 9 1 -1
BITMAP
80
40
20
10
08
10
20
40
80
ENDCHAR
STARTCHAR 003F
ENCODING 63
SWIDTH 545 0
DWIDTH 6 0
BBX 5 7 1 0
BITMAP
70
88
88
30
20
00
20
ENDCHAR
STARTCHAR 0040
ENCODING 64
SWIDTH 545 0
DWIDTH 6 0
BBX 5 5 1 0
BITMAP
F0
E8
90
F0
60
ENDCHAR
STARTCHAR 0041
ENCODING 65
SWIDTH 545 0
DWIDTH 6 0
BBX 5 7 1 0
BITMAP
20
50
88
88
F8
88
88
ENDCHAR
STARTCHAR 0042
ENCODING 66
SWIDTH 545 0
DWIDTH 6 0
BBX 5 7 1 0
BITMAP
70
88
88
B0
88
88
70
ENDCHAR
STARTCHAR 0043
ENCODING 67
SWIDTH 545 0
DWIDTH 6 0
BBX 5 7 1 0
BITMAP
70
88
88
80
88
88
70
ENDCHAR
STARTCHAR 0044
ENCODING 68
SWIDTH 545 0
DWIDTH 6 0
BBX 5 7 1 0
BITMAP
E0
90
88
88
88
90
E0
ENDCHAR
STARTCHAR 0045
ENCODING 69
SWIDTH 545 0
DWIDTH 6 0
BBX 5 7 1 0
BITMAP
70
88
80
E0
80
88
70
ENDCHAR
STARTCHAR 0046
ENCODING 70
SWIDTH 545 0
DWIDTH 6 0
BBX 5 7 1 0
BITMAP
F0
88
80
E0
80
80
80
ENDCHAR
STARTCHAR 0047
ENCODING 71
SWIDTH 545 0
DWIDTH 6 0
BBX 5 7 1 0
BITMAP
70
88
88
A0
98
88
70
ENDCHAR
STARTCHAR 0048
ENCODING 72
SWIDTH 545 0
DWIDTH 6 0
BBX 5 7 1 0
BITMAP
88
88
A8
F8
88
88
88
ENDCHAR
STARTCHAR 0049
ENCODING 73
SWIDTH 363 0
DWIDTH 4 0
BBX 3 7 1 0
BITMAP
E0
40
40
40
40
40
E0
ENDCHAR
STARTCHAR 004A
ENCODING 74
SWIDTH 545 0
DWIDTH 6 0
BBX 5 7 1 0
BITMAP
70
08
08
08
88
88
70
ENDCHAR
STARTCHAR 004B
ENCODING 75
SWIDTH 545 0
DWIDTH 6 0
BBX 5 7 1 0
BITMAP
48
90
A0
C0
A0
90
88
ENDCHAR
STARTCHAR 004C
ENCODING 76
SWIDTH 545 0
DWIDTH 6 0
BBX 5 7 1 0
BITMAP
80
80
80
80
80
88
70
ENDCHAR
STARTCHAR 004D
ENCODING 77
SWIDTH 727 0
DWIDTH 8 0
BBX 7 7 1 0
BITMAP
44
AA
AA
92
92
92
82
ENDCHAR
STARTCHAR 004E
ENCODING 78
SWIDTH 545 0
DWIDTH 6 0
BBX 5 7 1 0
BITMAP
88
C8
A8
A8
A8
98
88
ENDCHAR
STARTCHAR 004F
ENCODING 79
SWIDTH 545 0
DWIDTH 6 0
BBX 5 7 1 0
BITMAP
70
88
88
88
88
88
70
ENDCHAR
STARTCHAR 0050
ENCODING 80
SWIDTH 545 0
DWIDTH 6 0
BBX 5 7 1 0
BITMAP
70
88
88
88
F0
80
80
ENDCHAR
STARTCHAR 0051
ENCODING 81
SWIDTH 545 0
DWIDTH 6 0
BBX 5 9 1 -2
BITMAP
70
88
88
88
88
88
70
20
10
ENDCHAR
STARTCHAR 0052
ENCODING 82
SWIDTH 545 0
DWIDTH 6 0
BBX 5 7 1 0
BITMAP
70
88
88
88
F0
A0
90
ENDCHAR
STARTCHAR 0053
ENCODING 83
SWIDTH 545 0
DWIDTH 6 0
BBX 5 7 1 0
BITMAP
70
88
80
70
08
88
70
ENDCHAR
STARTCHAR 0054
ENCODING 84
SWIDTH 545 0
DWIDTH 6 0
BBX 5 7 1 0
BITMAP
70
A8
20
20
20
20
20
ENDCHAR
STARTCHAR 0055
ENCODING 85
SWIDTH 545 0
DWIDTH 6 0
BBX 5 7 1 0
BITMAP
88
88
88
88
88
88
70
ENDCHAR
STARTCHAR 0056
ENCODING 86
SWIDTH 545 0
DWIDTH 6 0
BBX 5 7 1 0
BITMAP
88
88
88
88
50
50
20
ENDCHAR
STARTCHAR 0057
ENCODING 87
SWIDTH 727 0
DWIDTH 8 0
BBX 7 7 1 0
BITMAP
82
92
92
92
AA
AA
44
ENDCHAR
STARTCHAR 0058
ENCODING 88
SWIDTH 545 0
DWIDTH 6 0
BBX 5 7 1 0
BITMAP
88
50
50
20
50
50
88
ENDCHAR
STARTCHAR 0059
ENCODING 89
SWIDTH 545 0
DWIDTH 6 0
BBX 5 7 1 0
BITMAP
88
88
50
20
20
20
20
ENDCHAR
STARTCHAR 005A
ENCODING 90
SWIDTH 545 0
DWIDTH 6 0
BBX 5 7 1 0
BITMAP
F0
88
08
70
80
88
78
ENDCHAR
STARTCHAR 005B
ENCODING 91
SWIDTH 363 0
DWIDTH 4 0
BBX 3 8 1 -1
BITMAP
60
80
80
80
80
80
80
60
ENDCHAR
STARTCHAR 005C
ENCODING 92
SWIDTH 545 0
DWIDTH 6 0
BBX 4 7 1 0
BITMAP
80
80
40
40
20
20
10
ENDCHAR
STARTCHAR 005D
ENCODING 93
SWIDTH 363 0
DWIDTH 4 0
BBX 3 8 0 -1
BITMAP
C0
20
20
20
20
20
20
C0
ENDCHAR
STARTCHAR 005E
ENCODING 94
SWIDTH 272 0
DWIDTH 3 0
BBX 1 2 1 6
BITMAP
80
80
ENDCHAR
STARTCHAR 005F
ENCODING 95
SWIDTH 454 0
DWIDTH 5 0
BBX 3 1 1 0
BITMAP
E0
ENDCHAR
STARTCHAR 0060
ENCODING 96
SWIDTH 272 0
DWIDTH 3 0
BBX 1 2 1 6
BITMAP
80
80
ENDCHAR
STARTCHAR 0061
ENCODING 97
SWIDTH 636 0
DWIDTH 7 0
BBX 6 5 1 0
BITMAP
70
88
88
88
74
ENDCHAR
STARTCHAR 0062
ENCODING 98
SWIDTH 545 0
DWIDTH 6 0
BBX 5 7 1 0
BITMAP
80
80
F0
88
88
88
70
ENDCHAR
STARTCHAR 0063
ENCODING 99
SWIDTH 545 0
DWIDTH 6 0
BBX 5 5 1 0
BITMAP
70
88
80
88
70
ENDCHAR
STARTCHAR 0064
ENCODING 100
SWIDTH 545 0
DWIDTH 6 0
BBX 5 7 1 0
BITMAP
08
08
78
88
88
88
70
ENDCHAR
STARTCHAR 0065
ENCODING 101
SWIDTH 545 0
DWIDTH 6 0
BBX 5 5 1 0
BITMAP
70
88
E0
88
70
ENDCHAR
STARTCHAR 0066
ENCODING 102
SWIDTH 545 0
DWIDTH 6 0
BBX 5 7 1 0
BITMAP
70
88
80
E0
80
80
80
ENDCHAR
STARTCHAR 0067
ENCODING 103
SWIDTH 545 0
DWIDTH 6 0
BBX 5 7 1 -2
BITMAP
70
88
88
78
08
88
70
ENDCHAR
STARTCHAR 0068
ENCODING 104
SWIDTH 545 0
DWIDTH 6 0
BBX 5 7 1 0
BITMAP
80
80
B0
C8
88
88
88
ENDCHAR
STARTCHAR 0069
ENCODING 105
SWIDTH 181 0
DWIDTH 2 0
BBX 1 7 1 0
BITMAP
80
00
80
80
80
80
80
ENDCHAR
STARTCHAR 006A
ENCODING 106
SWIDTH 454 0
DWIDTH 5 0
BBX 4 5 1 0
BITMAP
10
10
10
90
60
ENDCHAR
STARTCHAR 006B
ENCODING 107
SWIDTH 545 0
DWIDTH 6 0
BBX 5 7 1 0
BITMAP
80
80
88
B0
C0
B0
88
ENDCHAR
STARTCHAR 006C
ENCODING 108
SWIDTH 181 0
DWIDTH 2 0
BBX 1 7 1 0
BITMAP
80
80
80
80
80
80
80
ENDCHAR
STARTCHAR 006D
ENCODING 109
SWIDTH 727 0
DWIDTH 8 0
BBX 7 5 1 0
BITMAP
EC
92
92
92
92
ENDCHAR
STARTCHAR 006E
ENCODING 110
SWIDTH 545 0
DWIDTH 6 0
BBX 5 5 1 0
BITMAP
F0
88
88
88
88
ENDCHAR
STARTCHAR 006F
ENCODING 111
SWIDTH 545 0
DWIDTH 6 0
BBX 5 5 1 0
BITMAP
70
88
88
88
70
ENDCHAR
STARTCHAR 0070
ENCODING 112
SWIDTH 545 0
DWIDTH 6 0
BBX 5 7 1 -2
BITMAP
70
88
88
88
F0
80
80
ENDCHAR
STARTCHAR 0071
ENCODING 113
SWIDTH 545 0
DWIDTH 6 0
BBX 5 7 1 -2
BITMAP
70
88
88
88
78
08
08
ENDCHAR
STARTCHAR 0072
ENCODING 114
SWIDTH 545 0
DWIDTH 6 0
BBX 5 5 1 0
BITMAP
70
88
80
80
80
ENDCHAR
STARTCHAR 0073
ENCODING 115
SWIDTH 545 0
DWIDTH 6 0
BBX 5 5 1 0
BITMAP
78
80
70
08
F0
ENDCHAR
STARTCHAR 0074
ENCODING 116
SWIDTH 636 0
DWIDTH 7 0
BBX 6 7 1 0
BITMAP
40
40
F8
40
40
44
38
ENDCHAR
STARTCHAR 0075
ENCODING 117
SWIDTH 545 0
DWIDTH 6 0
BBX 5 5 1 0
BITMAP
88
88
88
88
70
ENDCHAR
STARTCHAR 0076
ENCODING 118
SWIDTH 545 0
DWIDTH 6 0
BBX 5 5 1 0
BITMAP
88
88
50
50
20
ENDCHAR
STARTCHAR 0077
ENCODING 119
SWIDTH 727 0
DWIDTH 8 0
BBX 7 5 1 0
BITMAP
92
92
92
92
EC
ENDCHAR
STARTCHAR 0078
ENCODING 120
SWIDTH 545 0
DWIDTH 6 0
BBX 5 5 1 0
BITMAP
88
50
20
50
88
ENDCHAR
STARTCHAR 0079
ENCODING 121
SWIDTH 545 0
DWIDTH 6 0
BBX 5 7 1 -2
BITMAP
88
88
88
78
08
88
70
ENDCHAR
STARTCHAR 007A
ENCODING 122
SWIDTH 545 0
DWIDTH 6 0
BBX 5 5 1 0
BITMAP
F8
10
20
40
F8
ENDCHAR
STARTCHAR 007B
ENCODING 123
SWIDTH 454 0
DWIDTH 5 0
BBX 4 9 0 -1
BITMAP
20
50
40
40
80
40
40
50
20
ENDCHAR
STARTCHAR 007C
ENCODING 124
SWIDTH 181 0
DWIDTH 2 0
BBX 1 7 1 0
BITMAP
80
80
80
80
80
80
80
ENDCHAR
STARTCHAR 007D
ENCODING 125
SWIDTH 454 0
DWIDTH 5 0
BBX 4 9 0 -1
BITMAP
40
A0
20
20
10
20
20
A0
40
ENDCHAR
STARTCHAR 007E
ENCODING 126
SWIDTH 636 0
DWIDTH 7 0
BBX 3 2 2 2
BITMAP
E0
E0
ENDCHAR
STARTCHAR 00A0
ENCODING 160
SWIDTH 181 0
DWIDTH 2 0
BBX 0 0 0 0
BITMAP
ENDCHAR
STARTCHAR 00A1
ENCODING 161
SWIDTH 181 0
DWIDTH 2 0
BBX 1 7 1 0
BITMAP
80
00
80
80
80
80
80
ENDCHAR
STARTCHAR 00A2
ENCODING 162
SWIDTH 545 0
DWIDTH 6 0
BBX 5 7 1 0
BITMAP
20
70
88
80
88
70
20
ENDCHAR
STARTCHAR 00A3
ENCODING 163
SWIDTH 636 0
DWIDTH 7 0
BBX 6 7 1 0
BITMAP
38
44
40
70
40
44
F8
ENDCHAR
STARTCHAR 00A4
ENCODING 164
SWIDTH 454 0
DWIDTH 5 0
BBX 3 4 1 1
BITMAP
E0
A0
40
A0
ENDCHAR
STARTCHAR 00A5
ENCODING 165
SWIDTH 545 0
DWIDTH 6 0
BBX 5 7 1 0
BITMAP
88
88
50
70
20
70
20
ENDCHAR
STARTCHAR 00A7
ENCODING 167
SWIDTH 545 0
DWIDTH 6 0
BBX 5 7 1 0
BITMAP
70
88
80
70
F8
80
78
ENDCHAR
STARTCHAR 00A8
ENCODING 168
SWIDTH 272 0
DWIDTH 3 0
BBX 3 1 0 6
BITMAP
A0
ENDCHAR
STARTCHAR 00A9
ENCODING 169
SWIDTH 454 0
DWIDTH 5 0
BBX 3 3 1 4
BITMAP
C0
E0
E0
ENDCHAR
STARTCHAR 00AA
ENCODING 170
SWIDTH 363 0
DWIDTH 4 0
BBX 3 4 1 3
BITMAP
C0
C0
E0
C0
ENDCHAR
STARTCHAR 00AB
ENCODING 171
SWIDTH 909 0
DWIDTH 10 0
BBX 9 9 0 -1
BITMAP
0880
1100
2200
4400
8800
4400
2200
1100
0880
ENDCHAR
STARTCHAR 00AC
ENCODING 172
SWIDTH 636 0
DWIDTH 7 0
BBX 4 2 1 2
BITMAP
F0
10
ENDCHAR
STARTCHAR 00AE
ENCODING 174
SWIDTH 454 0
DWIDTH 5 0
BBX 3 3 1 4
BITMAP
C0
A0
E0
ENDCHAR
STARTCHAR 00AF
ENCODING 175
SWIDTH 272 0
DWIDTH 3 0
BBX 3 1 0 6
BITMAP
E0
ENDCHAR
STARTCHAR 00B0
ENCODING 176
SWIDTH 272 0
DWIDTH 3 0
BBX 2 3 1 4
BITMAP
80
C0
80
ENDCHAR
STARTCHAR 00B1
ENCODING 177
SWIDTH 636 0
DWIDTH 7 0
BBX 5 6 1 0
BITMAP
20
20
F8
20
00
F8
ENDCHAR
STARTCHAR 00B2
ENCODING 178
SWIDTH 363 0
DWIDTH 4 0
BBX 2 4 1 3
BITMAP
C0
C0
C0
C0
ENDCHAR
STARTCHAR 00B3
ENCODING 179
SWIDTH 363 0
DWIDTH 4 0
BBX 2 4 1 3
BITMAP
C0
C0
C0
C0
ENDCHAR
STARTCHAR 00B4
ENCODING 180
SWIDTH 272 0
DWIDTH 3 0
BBX 1 2 1 6
BITMAP
80
80
ENDCHAR
STARTCHAR 00B5
ENCODING 181
SWIDTH 545 0
DWIDTH 6 0
BBX 5 7 1 -2
BITMAP
88
88
88
88
F0
80
80
ENDCHAR
STARTCHAR 00B6
ENCODING 182
SWIDTH 727 0
DWIDTH 8 0
BBX 7 9 1 -2
BITMAP
7E
F4
F4
F4
74
14
14
14
14
ENDCHAR
STARTCHAR 00B7
ENCODING 183
SWIDTH 181 0
DWIDTH 2 0
BBX 1 1 1 3
BITMAP
80
ENDCHAR
STARTCHAR 00B8
ENCODING 184
SWIDTH 272 0
DWIDTH 3 0
BBX 3 3 0 -2
BITMAP
40
20
E0
ENDCHAR
STARTCHAR 00B9
ENCODING 185
SWIDTH 272 0
DWIDTH 3 0
BBX 1 4 1 3
BITMAP
80
80
80
80
ENDCHAR
STARTCHAR 00BA
ENCODING 186
SWIDTH 363 0
DWIDTH 4 0
BBX 2 4 1 3
BITMAP
C0
C0
C0
C0
ENDCHAR
STARTCHAR 00BB
ENCODING 187
SWIDTH 818 0
DWIDTH 9 0
BBX 9 9 0 -1
BITMAP
8800
4400
2200
1100
0880
1100
2200
4400
8800
ENDCHAR
STARTCHAR 00BC
ENCODING 188
SWIDTH 909 0
DWIDTH 10 0
BBX 8 7 1 0
BITMAP
84
8C
88
B1
33
47
41
ENDCHAR
STARTCHAR 00BD
ENCODING 189
SWIDTH 818 0
DWIDTH 9 0
BBX 7 7 1 0
BITMAP
98
98
96
3A
26
4A
46
ENDCHAR
STARTCHAR 00BE
ENCODING 190
SWIDTH 1000 0
DWIDTH 11 0
BBX 9 7 1 0
BITMAP
C200
C400
AC00
D880
1980
2380
2080
ENDCHAR
STARTCHAR 00BF
ENCODING 191
SWIDTH 545 0
DWIDTH 6 0
BBX 5 7 1 0
BITMAP
20
00
20
60
88
88
70
ENDCHAR
STARTCHAR 00C0
ENCODING 192
SWIDTH 545 0
DWIDTH 6 0
BBX 5 10 1 0
BITMAP
40
20
00
20
50
88
88
F8
88
88
ENDCHAR
STARTCHAR 00C1
ENCODING 193
SWIDTH 545 0
DWIDTH 6 0
BBX 5 10 1 0
BITMAP
20
40
00
20
50
88
88
F8
88
88
ENDCHAR
STARTCHAR 00C2
ENCODING 194
SWIDTH 545 0
DWIDTH 6 0
BBX 5 10 1 0
BITMAP
20
60
00
20
50
88
88
F8
88
88
ENDCHAR
STARTCHAR 00C3
ENCODING 195
SWIDTH 545 0
DWIDTH 6 0
BBX 5 10 1 0
BITMAP
50
70
00
20
50
88
88
F8
88
88
ENDCHAR
STARTCHAR 00C4
ENCODING 196
SWIDTH 545 0
DWIDTH 6 0
BBX 5 9 1 0
BITMAP
50
00
20
50
88
88
F8
88
88
ENDCHAR
STARTCHAR 00C5
ENCODING 197
SWIDTH 545 0
DWIDTH 6 0
BBX 5 9 1 0
BITMAP
20
20
20
50
88
88
F8
88
88
ENDCHAR
STARTCHAR 00C6
ENCODING 198
SWIDTH 909 0
DWIDTH 10 0
BBX 9 7 1 0
BITMAP
2700
5880
8800
8E00
F800
8880
8F00
ENDCHAR
STARTCHAR 00C7
ENCODING 199
SWIDTH 545 0
DWIDTH 6 0
BBX 5 9 1 -2
BITMAP
70
88
88
80
88
88
70
20
70
ENDCHAR
STARTCHAR 00C8
ENCODING 200
SWIDTH 545 0
DWIDTH 6 0
BBX 5 10 1 0
BITMAP
40
20
00
70
88
80
E0
80
88
70
ENDCHAR
STARTCHAR 00C9
ENCODING 201
SWIDTH 545 0
DWIDTH 6 0
BBX 5 10 1 0
BITMAP
20
40
00
70
88
80
E0
80
88
70
ENDCHAR
STARTCHAR 00CA
ENCODING 202
SWIDTH 545 0
DWIDTH 6 0
BBX 5 10 1 0
BITMAP
20
60
00
70
88
80
E0
80
88
70
ENDCHAR
STARTCHAR 00CB
ENCODING 203
SWIDTH 545 0
DWIDTH 6 0
BBX 5 9 1 0
BITMAP
50
00
70
88
80
E0
80
88
70
ENDCHAR
STARTCHAR 00CC
ENCODING 204
SWIDTH 363 0
DWIDTH 4 0
BBX 3 10 1 0
BITMAP
80
40
00
E0
40
40
40
40
40
E0
ENDCHAR
STARTCHAR 00CD
ENCODING 205
SWIDTH 363 0
DWIDTH 4 0
BBX 3 10 1 0
BITMAP
40
80
00
E0
40
40
40
40
40
E0
ENDCHAR
STARTCHAR 00CE
ENCODING 206
SWIDTH 363 0
DWIDTH 4 0
BBX 3 10 1 0
BITMAP
40
C0
00
E0
40
40
40
40
40
E0
ENDCHAR
STARTCHAR 00CF
ENCODING 207
SWIDTH 363 0
DWIDTH 4 0
BBX 3 9 1 0
BITMAP
A0
00
E0
40
40
40
40
40
E0
ENDCHAR
STARTCHAR 00D0
ENCODING 208
SWIDTH 545 0
DWIDTH 6 0
BBX 6 7 0 0
BITMAP
70
48
44
E4
44
48
70
ENDCHAR
STARTCHAR 00D1
ENCODING 209
SWIDTH 545 0
DWIDTH 6 0
BBX 5 10 1 0
BITMAP
50
70
00
88
C8
A8
A8
A8
98
88
ENDCHAR
STARTCHAR 00D2
ENCODING 210
SWIDTH 545 0
DWIDTH 6 0
BBX 5 10 1 0
BITMAP
40
20
00
70
88
88
88
88
88
70
ENDCHAR
STARTCHAR 00D3
ENCODING 211
SWIDTH 545 0
DWIDTH 6 0
BBX 5 10 1 0
BITMAP
20
40
00
70
88
88
88
88
88
70
ENDCHAR
STARTCHAR 00D4
ENCODING 212
SWIDTH 545 0
DWIDTH 6 0
BBX 5 10 1 0
BITMAP
20
60
00
70
88
88
88
88
88
70
ENDCHAR
STARTCHAR 00D5
ENCODING 213
SWIDTH 545 0
DWIDTH 6 0
BBX 5 10 1 0
BITMAP
50
70
00
70
88
88
88
88
88
70
ENDCHAR
STARTCHAR 00D6
ENCODING 214
SWIDTH 545 0
DWIDTH 6 0
BBX 5 9 1 0
BITMAP
50
00
70
88
88
88
88
88
70
ENDCHAR
STARTCHAR 00D7
ENCODING 215
SWIDTH 636 0
DWIDTH 7 0
BBX 5 5 1 1
BITMAP
90
D8
60
70
90
ENDCHAR
STARTCHAR 00D8
ENCODING 216
SWIDTH 636 0
DWIDTH 7 0
BBX 5 8 1 0
BITMAP
08
78
98
B8
A8
C8
C8
F0
ENDCHAR
STARTCHAR 00D9
ENCODING 217
SWIDTH 545 0
DWIDTH 6 0
BBX 5 10 1 0
BITMAP
40
20
00
88
88
88
88
88
88
70
ENDCHAR
STARTCHAR 00DA
ENCODING 218
SWIDTH 545 0
DWIDTH 6 0
BBX 5 10 1 0
BITMAP
20
40
00
88
88
88
88
88
88
70
ENDCHAR
STARTCHAR 00DB
ENCODING 219
SWIDTH 545 0
DWIDTH 6 0
BBX 5 10 1 0
BITMAP
20
60
00
88
88
88
88
88
88
70
ENDCHAR
STARTCHAR 00DC
ENCODING 220
SWIDTH 545 0
DWIDTH 6 0
BBX 5 9 1 0
BITMAP
50
00
88
88
88
88
88
88
70
ENDCHAR
STARTCHAR 00DD
ENCODING 221
SWIDTH 545 0
DWIDTH 6 0
BBX 5 10 1 0
BITMAP
20
40
00
88
88
50
20
20
20
20
ENDCHAR
STARTCHAR 00DE
ENCODING 222
SWIDTH 545 0
DWIDTH 6 0
BBX 5 7 1 0
BITMAP
80
F0
88
88
88
F0
80
ENDCHAR
STARTCHAR 00DF
ENCODING 223
SWIDTH 545 0
DWIDTH 6 0
BBX 5 7 1 0
BITMAP
F0
88
88
B0
88
88
B0
ENDCHAR
STARTCHAR 00E0
ENCODING 224
SWIDTH 636 0
DWIDTH 7 0
BBX 6 8 1 0
BITMAP
40
20
00
70
88
88
88
74
ENDCHAR
STARTCHAR 00E1
ENCODING 225
SWIDTH 636 0
DWIDTH 7 0
BBX 6 8 1 0
BITMAP
20
40
00
70
88
88
88
74
ENDCHAR
STARTCHAR 00E2
ENCODING 226
SWIDTH 636 0
DWIDTH 7 0
BBX 6 8 1 0
BITMAP
20
60
00
70
88
88
88
74
ENDCHAR
STARTCHAR 00E3
ENCODING 227
SWIDTH 636 0
DWIDTH 7 0
BBX 6 8 1 0
BITMAP
70
70
00
70
88
88
88
74
ENDCHAR
STARTCHAR 00E4
ENCODING 228
SWIDTH 636 0
DWIDTH 7 0
BBX 6 7 1 0
BITMAP
50
00
70
88
88
88
74
ENDCHAR
STARTCHAR 00E5
ENCODING 229
SWIDTH 636 0
DWIDTH 7 0
BBX 6 7 1 0
BITMAP
20
20
70
88
88
88
74
ENDCHAR
STARTCHAR 00E6
ENCODING 230
SWIDTH 1090 0
DWIDTH 12 0
BBX 11 5 1 0
BITMAP
71C0
8A20
8B80
8A20
75C0
ENDCHAR
STARTCHAR 00E7
ENCODING 231
SWIDTH 545 0
DWIDTH 6 0
BBX 5 7 1 -2
BITMAP
70
88
80
88
70
20
70
ENDCHAR
STARTCHAR 00E8
ENCODING 232
SWIDTH 545 0
DWIDTH 6 0
BBX 5 8 1 0
BITMAP
40
20
00
70
88
E0
88
70
ENDCHAR
STARTCHAR 00E9
ENCODING 233
SWIDTH 545 0
DWIDTH 6 0
BBX 5 8 1 0
BITMAP
20
40
00
70
88
E0
88
70
ENDCHAR
STARTCHAR 00EA
ENCODING 234
SWIDTH 545 0
DWIDTH 6 0
BBX 5 8 1 0
BITMAP
20
60
00
70
88
E0
88
70
ENDCHAR
STARTCHAR 00EB
ENCODING 235
SWIDTH 545 0
DWIDTH 6 0
BBX 5 7 1 0
BITMAP
50
00
70
88
E0
88
70
ENDCHAR
STARTCHAR 00EC
ENCODING 236
SWIDTH 181 0
DWIDTH 2 0
BBX 2 8 0 0
BITMAP
80
40
00
40
40
40
40
40
ENDCHAR
STARTCHAR 00ED
ENCODING 237
SWIDTH 181 0
DWIDTH 2 0
BBX 2 8 0 0
BITMAP
40
80
00
40
40
40
40
40
ENDCHAR
STARTCHAR 00EE
ENCODING 238
SWIDTH 181 0
DWIDTH 2 0
BBX 2 8 0 0
BITMAP
40
C0
00
40
40
40
40
40
ENDCHAR
STARTCHAR 00EF
ENCODING 239
SWIDTH 181 0
DWIDTH 2 0
BBX 3 7 0 0
BITMAP
E0
00
40
40
40
40
40
ENDCHAR
STARTCHAR 00F0
ENCODING 240
SWIDTH 636 0
DWIDTH 7 0
BBX 5 8 1 0
BITMAP
08
70
B8
08
78
88
88
70
ENDCHAR
STARTCHAR 00F1
ENCODING 241
SWIDTH 545 0
DWIDTH 6 0
BBX 5 8 1 0
BITMAP
50
70
00
F0
88
88
88
88
ENDCHAR
STARTCHAR 00F2
ENCODING 242
SWIDTH 545 0
DWIDTH 6 0
BBX 5 8 1 0
BITMAP
40
20
00
70
88
88
88
70
ENDCHAR
STARTCHAR 00F3
ENCODING 243
SWIDTH 545 0
DWIDTH 6 0
BBX 5 8 1 0
BITMAP
20
40
00
70
88
88
88
70
ENDCHAR
STARTCHAR 00F4
ENCODING 244
SWIDTH 545 0
DWIDTH 6 0
BBX 5 8 1 0
BITMAP
20
60
00
70
88
88
88
70
ENDCHAR
STARTCHAR 00F5
ENCODING 245
SWIDTH 545 0
DWIDTH 6 0
BBX 5 8 1 0
BITMAP
50
70
00
70
88
88
88
70
ENDCHAR
STARTCHAR 00F6
ENCODING 246
SWIDTH 545 0
DWIDTH 6 0
BBX 5 7 1 0
BITMAP
50
00
70
88
88
88
70
ENDCHAR
STARTCHAR 00F7
ENCODING 247
SWIDTH 636 0
DWIDTH 7 0
BBX 4 5 1 1
BITMAP
20
00
F0
00
20
ENDCHAR
STARTCHAR 00F8
ENCODING 248
SWIDTH 545 0
DWIDTH 6 0
BBX 6 7 0 -1
BITMAP
04
38
5C
54
64
78
C0
ENDCHAR
STARTCHAR 00F9
ENCODING 249
SWIDTH 545 0
DWIDTH 6 0
BBX 5 8 1 0
BITMAP
40
20
00
88
88
88
88
70
ENDCHAR
STARTCHAR 00FA
ENCODING 250
SWIDTH 545 0
DWIDTH 6 0
BBX 5 8 1 0
BITMAP
20
40
00
88
88
88
88
70
ENDCHAR
STARTCHAR 00FB
ENCODING 251
SWIDTH 545 0
DWIDTH 6 0
BBX 5 8 1 0
BITMAP
20
60
00
88
88
88
88
70
ENDCHAR
STARTCHAR 00FC
ENCODING 252
SWIDTH 545 0
DWIDTH 6 0
BBX 5 7 1 0
BITMAP
50
00
88
88
88
88
70
ENDCHAR
STARTCHAR 00FD
ENCODING 253
SWIDTH 545 0
DWIDTH 6 0
BBX 5 10 1 -2
BITMAP
20
40
00
88
88
88
78
08
88
70
ENDCHAR
STARTCHAR 00FE
ENCODING 254
SWIDTH 545 0
DWIDTH 6 0
BBX 5 7 1 0
BITMAP
80
F0
88
88
88
F0
80
ENDCHAR
STARTCHAR 00FF
ENCODING 255
SWIDTH 545 0
DWIDTH 6 0
BBX 5 9 1 -2
BITMAP
50
00
88
88
88
78
08
88
70
ENDCHAR
STARTCHAR 0100
ENCODING 256
SWIDTH 545 0
DWIDTH 6 0
BBX 5 9 1 0
BITMAP
70
00
20
50
88
88
F8
88
88
ENDCHAR
STARTCHAR 0101
ENCODING 257
SWIDTH 636 0
DWIDTH 7 0
BBX 6 7 1 0
BITMAP
70
00
70
88
88
88
74
ENDCHAR
STARTCHAR 0102
ENCODING 258
SWIDTH 545 0
DWIDTH 6 0
BBX 5 9 1 0
BITMAP
70
00
20
50
88
88
F8
88
88
ENDCHAR
STARTCHAR 0103
ENCODING 259
SWIDTH 636 0
DWIDTH 7 0
BBX 6 7 1 0
BITMAP
70
00
70
88
88
88
74
ENDCHAR
STARTCHAR 0104
ENCODING 260
SWIDTH 545 0
DWIDTH 6 0
BBX 6 9 1 -2
BITMAP
20
50
88
88
F8
88
88
10
1C
ENDCHAR
STARTCHAR 0105
ENCODING 261
SWIDTH 636 0
DWIDTH 7 0
BBX 7 7 1 -2
BITMAP
70
88
88
88
74
08
0E
ENDCHAR
STARTCHAR 0106
ENCODING 262
SWIDTH 545 0
DWIDTH 6 0
BBX 5 10 1 0
BITMAP
20
40
00
70
88
88
80
88
88
70
ENDCHAR
STARTCHAR 0107
ENCODING 263
SWIDTH 545 0
DWIDTH 6 0
BBX 5 8 1 0
BITMAP
20
40
00
70
88
80
88
70
ENDCHAR
STARTCHAR 0108
ENCODING 264
SWIDTH 545 0
DWIDTH 6 0
BBX 5 10 1 0
BITMAP
20
60
00
70
88
88
80
88
88
70
ENDCHAR
STARTCHAR 0109
ENCODING 265
SWIDTH 545 0
DWIDTH 6 0
BBX 5 8 1 0
BITMAP
20
60
00
70
88
80
88
70
ENDCHAR
STARTCHAR 010A
ENCODING 266
SWIDTH 545 0
DWIDTH 6 0
BBX 5 9 1 0
BITMAP
20
00
70
88
88
80
88
88
70
ENDCHAR
STARTCHAR 010B
ENCODING 267
SWIDTH 545 0
DWIDTH 6 0
BBX 5 7 1 0
BITMAP
20
00
70
88
80
88
70
ENDCHAR
STARTCHAR 010C
ENCODING 268
SWIDTH 545 0
DWIDTH 6 0
BBX 5 10 1 0
BITMAP
60
20
00
70
88
88
80
88
88
70
ENDCHAR
STARTCHAR 010D
ENCODING 269
SWIDTH 545 0
DWIDTH 6 0
BBX 5 8 1 0
BITMAP
60
20
00
70
88
80
88
70
ENDCHAR
STARTCHAR 010E
ENCODING 270
SWIDTH 545 0
DWIDTH 6 0
BBX 5 10 1 0
BITMAP
60
40
00
E0
90
88
88
88
90
E0
ENDCHAR
STARTCHAR 010F
ENCODING 271
SWIDTH 545 0
DWIDTH 6 0
BBX 7 7 1 0
BITMAP
0C
0E
78
88
88
88
70
ENDCHAR
STARTCHAR 0110
ENCODING 272
SWIDTH 545 0
DWIDTH 6 0
BBX 6 7 0 0
BITMAP
70
48
44
E4
44
48
70
ENDCHAR
STARTCHAR 0111
ENCODING 273
SWIDTH 545 0
DWIDTH 6 0
BBX 5 7 1 0
BITMAP
78
08
78
88
88
88
70
ENDCHAR
STARTCHAR 0112
ENCODING 274
SWIDTH 545 0
DWIDTH 6 0
BBX 5 9 1 0
BITMAP
70
00
70
88
80
E0
80
88
70
ENDCHAR
STARTCHAR 0113
ENCODING 275
SWIDTH 545 0
DWIDTH 6 0
BBX 5 7 1 0
BITMAP
70
00
70
88
E0
88
70
ENDCHAR
STARTCHAR 0114
ENCODING 276
SWIDTH 545 0
DWIDTH 6 0
BBX 5 9 1 0
BITMAP
70
00
70
88
80
E0
80
88
70
ENDCHAR
STARTCHAR 0115
ENCODING 277
SWIDTH 545 0
DWIDTH 6 0
BBX 5 7 1 0
BITMAP
70
00
70
88
E0
88
70
ENDCHAR
STARTCHAR 0116
ENCODING 278
SWIDTH 545 0
DWIDTH 6 0
BBX 5 9 1 0
BITMAP
20
00
70
88
80
E0
80
88
70
ENDCHAR
STARTCHAR 0117
ENCODING 279
SWIDTH 545 0
DWIDTH 6 0
BBX 5 7 1 0
BITMAP
20
00
70
88
E0
88
70
ENDCHAR
STARTCHAR 0118
ENCODING 280
SWIDTH 545 0
DWIDTH 6 0
BBX 5 9 1 -2
BITMAP
70
88
80
E0
80
88
70
40
70
ENDCHAR
STARTCHAR 0119
ENCODING 281
SWIDTH 545 0
DWIDTH 6 0
BBX 5 7 1 -2
BITMAP
70
88
E0
88
70
40
70
ENDCHAR
STARTCHAR 011A
ENCODING 282
SWIDTH 545 0
DWIDTH 6 0
BBX 5 10 1 0
BITMAP
60
20
00
70
88
80
E0
80
88
70
ENDCHAR
STARTCHAR 011B
ENCODING 283
SWIDTH 545 0
DWIDTH 6 0
BBX 5 8 1 0
BITMAP
60
20
00
70
88
E0
88
70
ENDCHAR
STARTCHAR 011C
ENCODING 284
SWIDTH 545 0
DWIDTH 6 0
BBX 5 10 1 0
BITMAP
20
60
00
70
88
88
A0
98
88
70
ENDCHAR
STARTCHAR 011D
ENCODING 285
SWIDTH 545 0
DWIDTH 6 0
BBX 5 10 1 -2
BITMAP
20
60
00
70
88
88
78
08
88
70
ENDCHAR
STARTCHAR 011E
ENCODING 286
SWIDTH 545 0
DWIDTH 6 0
BBX 5 9 1 0
BITMAP
70
00
70
88
88
A0
98
88
70
ENDCHAR
STARTCHAR 011F
ENCODING 287
SWIDTH 545 0
DWIDTH 6 0
BBX 5 9 1 -2
BITMAP
70
00
70
88
88
78
08
88
70
ENDCHAR
STARTCHAR 0120
ENCODING 288
SWIDTH 545 0
DWIDTH 6 0
BBX 5 9 1 0
BITMAP
20
00
70
88
88
A0
98
88
70
ENDCHAR
STARTCHAR 0121
ENCODING 289
SWIDTH 545 0
DWIDTH 6 0
BBX 5 9 1 -2
BITMAP
20
00
70
88
88
78
08
88
70
ENDCHAR
STARTCHAR 0122
ENCODING 290
SWIDTH 545 0
DWIDTH 6 0
BBX 5 10 1 -3
BITMAP
70
88
88
A0
98
88
70
00
20
20
ENDCHAR
STARTCHAR 0123
ENCODING 291
SWIDTH 545 0
DWIDTH 6 0
BBX 5 10 1 -2
BITMAP
60
20
00
70
88
88
78
08
88
70
ENDCHAR
STARTCHAR 0124
ENCODING 292
SWIDTH 545 0
DWIDTH 6 0
BBX 5 10 1 0
BITMAP
20
60
00
88
88
A8
F8
88
88
88
ENDCHAR
STARTCHAR 0125
ENCODING 293
SWIDTH 545 0
DWIDTH 6 0
BBX 5 10 1 0
BITMAP
20
60
00
80
80
B0
C8
88
88
88
ENDCHAR
STARTCHAR 0126
ENCODING 294
SWIDTH 545 0
DWIDTH 6 0
BBX 5 7 1 0
BITMAP
F8
88
A8
F8
88
88
88
ENDCHAR
STARTCHAR 0127
ENCODING 295
SWIDTH 545 0
DWIDTH 6 0
BBX 6 7 0 0
BITMAP
E0
40
58
64
44
44
44
ENDCHAR
STARTCHAR 0128
ENCODING 296
SWIDTH 363 0
DWIDTH 4 0
BBX 3 10 1 0
BITMAP
A0
E0
00
E0
40
40
40
40
40
E0
ENDCHAR
STARTCHAR 0129
ENCODING 297
SWIDTH 181 0
DWIDTH 2 0
BBX 3 8 0 0
BITMAP
A0
E0
00
40
40
40
40
40
ENDCHAR
STARTCHAR 012A
ENCODING 298
SWIDTH 363 0
DWIDTH 4 0
BBX 3 9 1 0
BITMAP
E0
00
E0
40
40
40
40
40
E0
ENDCHAR
STARTCHAR 012B
ENCODING 299
SWIDTH 181 0
DWIDTH 2 0
BBX 3 7 0 0
BITMAP
E0
00
40
40
40
40
40
ENDCHAR
STARTCHAR 012C
ENCODING 300
SWIDTH 363 0
DWIDTH 4 0
BBX 3 9 1 0
BITMAP
E0
00
E0
40
40
40
40
40
E0
ENDCHAR
STARTCHAR 012D
ENCODING 301
SWIDTH 181 0
DWIDTH 2 0
BBX 3 7 0 0
BITMAP
E0
00
40
40
40
40
40
ENDCHAR
STARTCHAR 012E
ENCODING 302
SWIDTH 363 0
DWIDTH 4 0
BBX 3 9 1 -2
BITMAP
E0
40
40
40
40
40
E0
80
C0
ENDCHAR
STARTCHAR 012F
ENCODING 303
SWIDTH 181 0
DWIDTH 2 0
BBX 3 9 0 -2
BITMAP
40
00
40
40
40
40
40
80
E0
ENDCHAR
STARTCHAR 0130
ENCODING 304
SWIDTH 363 0
DWIDTH 4 0
BBX 3 9 1 0
BITMAP
40
00
E0
40
40
40
40
40
E0
ENDCHAR
STARTCHAR 0131
ENCODING 305
SWIDTH 181 0
DWIDTH 2 0
BBX 1 5 1 0
BITMAP
80
80
80
80
80
ENDCHAR
STARTCHAR 0132
ENCODING 306
SWIDTH 1000 0
DWIDTH 11 0
BBX 9 7 1 0
BITMAP
E700
4080
4080
4080
4880
4880
E700
ENDCHAR
STARTCHAR 0133
ENCODING 307
SWIDTH 727 0
DWIDTH 8 0
BBX 6 5 1 0
BITMAP
84
84
84
A4
98
ENDCHAR
STARTCHAR 0134
ENCODING 308
SWIDTH 545 0
DWIDTH 6 0
BBX 5 10 1 0
BITMAP
20
60
00
70
08
08
08
88
88
70
ENDCHAR
STARTCHAR 0135
ENCODING 309
SWIDTH 454 0
DWIDTH 5 0
BBX 4 8 1 0
BITMAP
10
30
00
10
10
10
90
60
ENDCHAR
STARTCHAR 0136
ENCODING 310
SWIDTH 545 0
DWIDTH 6 0
BBX 5 10 1 -3
BITMAP
48
90
A0
C0
A0
90
88
00
20
20
ENDCHAR
STARTCHAR 0137
ENCODING 311
SWIDTH 545 0
DWIDTH 6 0
BBX 5 10 1 -3
BITMAP
80
80
88
B0
C0
B0
88
00
20
20
ENDCHAR
STARTCHAR 0139
ENCODING 313
SWIDTH 545 0
DWIDTH 6 0
BBX 5 10 1 0
BITMAP
20
40
00
80
80
80
80
80
88
70
ENDCHAR
STARTCHAR 013A
ENCODING 314
SWIDTH 181 0
DWIDTH 2 0
BBX 2 10 0 0
BITMAP
40
80
00
40
40
40
40
40
40
40
ENDCHAR
STARTCHAR 013B
ENCODING 315
SWIDTH 545 0
DWIDTH 6 0
BBX 5 10 1 -3
BITMAP
80
80
80
80
80
88
70
00
20
20
ENDCHAR
STARTCHAR 013C
ENCODING 316
SWIDTH 181 0
DWIDTH 2 0
BBX 1 10 1 -3
BITMAP
80
80
80
80
80
80
80
00
80
80
ENDCHAR
STARTCHAR 013D
ENCODING 317
SWIDTH 545 0
DWIDTH 6 0
BBX 5 7 1 0
BITMAP
90
90
80
80
80
88
70
ENDCHAR
STARTCHAR 013E
ENCODING 318
SWIDTH 181 0
DWIDTH 2 0
BBX 3 7 1 0
BITMAP
C0
E0
80
80
80
80
80
ENDCHAR
STARTCHAR 013F
ENCODING 319
SWIDTH 545 0
DWIDTH 6 0
BBX 5 7 1 0
BITMAP
80
A0
80
80
80
88
70
ENDCHAR
STARTCHAR 0140
ENCODING 320
SWIDTH 181 0
DWIDTH 2 0
BBX 1 7 1 0
BITMAP
80
80
80
80
80
80
80
ENDCHAR
STARTCHAR 0141
ENCODING 321
SWIDTH 545 0
DWIDTH 6 0
BBX 6 7 0 0
BITMAP
40
60
40
40
C0
44
38
ENDCHAR
STARTCHAR 0142
ENCODING 322
SWIDTH 181 0
DWIDTH 2 0
BBX 3 7 0 0
BITMAP
40
60
40
40
C0
C0
40
ENDCHAR
STARTCHAR 0143
ENCODING 323
SWIDTH 545 0
DWIDTH 6 0
BBX 5 10 1 0
BITMAP
20
40
00
88
C8
A8
A8
A8
98
88
ENDCHAR
STARTCHAR 0144
ENCODING 324
SWIDTH 545 0
DWIDTH 6 0
BBX 5 8 1 0
BITMAP
20
40
00
F0
88
88
88
88
ENDCHAR
STARTCHAR 0145
ENCODING 325
SWIDTH 545 0
DWIDTH 6 0
BBX 5 10 1 -3
BITMAP
88
C8
A8
A8
A8
98
88
00
20
20
ENDCHAR
STARTCHAR 0146
ENCODING 326
SWIDTH 545 0
DWIDTH 6 0
BBX 5 8 1 -3
BITMAP
F0
88
88
88
88
00
20
20
ENDCHAR
STARTCHAR 0147
ENCODING 327
SWIDTH 545 0
DWIDTH 6 0
BBX 5 10 1 0
BITMAP
60
20
00
88
C8
A8
A8
A8
98
88
ENDCHAR
STARTCHAR 0148
ENCODING 328
SWIDTH 545 0
DWIDTH 6 0
BBX 5 8 1 0
BITMAP
60
20
00
F0
88
88
88
88
ENDCHAR
STARTCHAR 0149
ENCODING 329
SWIDTH 636 0
DWIDTH 7 0
BBX 7 7 0 0
BITMAP
80
40
3C
22
22
22
22
ENDCHAR
STARTCHAR 014A
ENCODING 330
SWIDTH 545 0
DWIDTH 6 0
BBX 5 9 1 -2
BITMAP
88
C8
A8
A8
A8
98
88
48
30
ENDCHAR
STARTCHAR 014B
ENCODING 331
SWIDTH 545 0
DWIDTH 6 0
BBX 5 7 1 -2
BITMAP
F8
88
88
88
88
48
30
ENDCHAR
STARTCHAR 014C
ENCODING 332
SWIDTH 545 0
DWIDTH 6 0
BBX 5 9 1 0
BITMAP
70
00
70
88
88
88
88
88
70
ENDCHAR
STARTCHAR 014D
ENCODING 333
SWIDTH 545 0
DWIDTH 6 0
BBX 5 7 1 0
BITMAP
70
00
70
88
88
88
70
ENDCHAR
STARTCHAR 014E
ENCODING 334
SWIDTH 545 0
DWIDTH 6 0
BBX 5 9 1 0
BITMAP
70
00
70
88
88
88
88
88
70
ENDCHAR
STARTCHAR 014F
ENCODING 335
SWIDTH 545 0
DWIDTH 6 0
BBX 5 7 1 0
BITMAP
70
00
70
88
88
88
70
ENDCHAR
STARTCHAR 0150
ENCODING 336
SWIDTH 545 0
DWIDTH 6 0
BBX 5 10 1 0
BITMAP
60
30
00
70
88
88
88
88
88
70
ENDCHAR
STARTCHAR 0151
ENCODING 337
SWIDTH 545 0
DWIDTH 6 0
BBX 5 8 1 0
BITMAP
60
30
00
70
88
88
88
70
ENDCHAR
STARTCHAR 0152
ENCODING 338
SWIDTH 909 0
DWIDTH 10 0
BBX 9 7 1 0
BITMAP
7700
8880
8800
8E00
8800
8880
7700
ENDCHAR
STARTCHAR 0153
ENCODING 339
SWIDTH 909 0
DWIDTH 10 0
BBX 9 5 1 0
BITMAP
7700
8880
8E00
8880
7700
ENDCHAR
STARTCHAR 0154
ENCODING 340
SWIDTH 545 0
DWIDTH 6 0
BBX 5 10 1 0
BITMAP
20
40
00
70
88
88
88
F0
A0
90
ENDCHAR
STARTCHAR 0155
ENCODING 341
SWIDTH 545 0
DWIDTH 6 0
BBX 5 8 1 0
BITMAP
20
40
00
70
88
80
80
80
ENDCHAR
STARTCHAR 0156
ENCODING 342
SWIDTH 545 0
DWIDTH 6 0
BBX 5 10 1 -3
BITMAP
70
88
88
88
F0
A0
90
00
20
20
ENDCHAR
STARTCHAR 0157
ENCODING 343
SWIDTH 545 0
DWIDTH 6 0
BBX 5 8 1 -3
BITMAP
70
88
80
80
80
00
20
20
ENDCHAR
STARTCHAR 0158
ENCODING 344
SWIDTH 545 0
DWIDTH 6 0
BBX 5 10 1 0
BITMAP
60
20
00
70
88
88
88
F0
A0
90
ENDCHAR
STARTCHAR 0159
ENCODING 345
SWIDTH 545 0
DWIDTH 6 0
BBX 5 8 1 0
BITMAP
60
20
00
70
88
80
80
80
ENDCHAR
STARTCHAR 015A
ENCODING 346
SWIDTH 545 0
DWIDTH 6 0
BBX 5 10 1 0
BITMAP
20
40
00
70
88
80
70
08
88
70
ENDCHAR
STARTCHAR 015B
ENCODING 347
SWIDTH 545 0
DWIDTH 6 0
BBX 5 8 1 0
BITMAP
20
40
00
78
80
70
08
F0
ENDCHAR
STARTCHAR 015C
ENCODING 348
SWIDTH 545 0
DWIDTH 6 0
BBX 5 10 1 0
BITMAP
20
60
00
70
88
80
70
08
88
70
ENDCHAR
STARTCHAR 015D
ENCODING 349
SWIDTH 545 0
DWIDTH 6 0
BBX 5 8 1 0
BITMAP
20
20
00
78
80
70
08
F0
ENDCHAR
STARTCHAR 015E
ENCODING 350
SWIDTH 545 0
DWIDTH 6 0
BBX 5 9 1 -2
BITMAP
70
88
80
70
08
88
70
20
70
ENDCHAR
STARTCHAR 015F
ENCODING 351
SWIDTH 545 0
DWIDTH 6 0
BBX 5 7 1 -2
BITMAP
78
80
70
08
F0
20
70
ENDCHAR
STARTCHAR 0160
ENCODING 352
SWIDTH 545 0
DWIDTH 6 0
BBX 5 10 1 0
BITMAP
60
20
00
70
88
80
70
08
88
70
ENDCHAR
STARTCHAR 0161
ENCODING 353
SWIDTH 545 0
DWIDTH 6 0
BBX 5 8 1 0
BITMAP
20
20
00
78
80
70
08
F0
ENDCHAR
STARTCHAR 0162
ENCODING 354
SWIDTH 545 0
DWIDTH 6 0
BBX 5 9 1 -2
BITMAP
70
A8
20
20
20
20
20
20
70
ENDCHAR
STARTCHAR 0163
ENCODING 355
SWIDTH 636 0
DWIDTH 7 0
BBX 6 9 1 -2
BITMAP
40
40
F8
40
40
44
38
10
30
ENDCHAR
STARTCHAR 0164
ENCODING 356
SWIDTH 545 0
DWIDTH 6 0
BBX 5 10 1 0
BITMAP
60
20
00
70
A8
20
20
20
20
20
ENDCHAR
STARTCHAR 0165
ENCODING 357
SWIDTH 636 0
DWIDTH 7 0
BBX 7 7 1 0
BITMAP
44
46
F8
40
40
44
38
ENDCHAR
STARTCHAR 0166
ENCODING 358
SWIDTH 545 0
DWIDTH 6 0
BBX 5 7 1 0
BITMAP
70
A8
70
20
20
20
20
ENDCHAR
STARTCHAR 0167
ENCODING 359
SWIDTH 636 0
DWIDTH 7 0
BBX 6 7 1 0
BITMAP
40
40
F8
40
E0
44
38
ENDCHAR
STARTCHAR 0168
ENCODING 360
SWIDTH 545 0
DWIDTH 6 0
BBX 5 10 1 0
BITMAP
50
70
00
88
88
88
88
88
88
70
ENDCHAR
STARTCHAR 0169
ENCODING 361
SWIDTH 545 0
DWIDTH 6 0
BBX 5 8 1 0
BITMAP
50
70
00
88
88
88
88
70
ENDCHAR
STARTCHAR 016A
ENCODING 362
SWIDTH 545 0
DWIDTH 6 0
BBX 5 9 1 0
BITMAP
70
00
88
88
88
88
88
88
70
ENDCHAR
STARTCHAR 016B
ENCODING 363
SWIDTH 545 0
DWIDTH 6 0
BBX 5 7 1 0
BITMAP
70
00
88
88
88
88
70
ENDCHAR
STARTCHAR 016C
ENCODING 364
SWIDTH 545 0
DWIDTH 6 0
BBX 5 9 1 0
BITMAP
70
00
88
88
88
88
88
88
70
ENDCHAR
STARTCHAR 016D
ENCODING 365
SWIDTH 545 0
DWIDTH 6 0
BBX 5 7 1 0
BITMAP
70
00
88
88
88
88
70
ENDCHAR
STARTCHAR 016E
ENCODING 366
SWIDTH 545 0
DWIDTH 6 0
BBX 5 9 1 0
BITMAP
20
20
88
88
88
88
88
88
70
ENDCHAR
STARTCHAR 016F
ENCODING 367
SWIDTH 545 0
DWIDTH 6 0
BBX 5 7 1 0
BITMAP
20
20
88
88
88
88
70
ENDCHAR
STARTCHAR 0170
ENCODING 368
SWIDTH 545 0
DWIDTH 6 0
BBX 5 10 1 0
BITMAP
60
30
00
88
88
88
88
88
88
70
ENDCHAR
STARTCHAR 0171
ENCODING 369
SWIDTH 545 0
DWIDTH 6 0
BBX 5 8 1 0
BITMAP
60
30
00
88
88
88
88
70
ENDCHAR
STARTCHAR 0172
ENCODING 370
SWIDTH 545 0
DWIDTH 6 0
BBX 5 9 1 -2
BITMAP
88
88
88
88
88
88
70
40
70
ENDCHAR
STARTCHAR 0173
ENCODING 371
SWIDTH 545 0
DWIDTH 6 0
BBX 5 7 1 -2
BITMAP
88
88
88
88
70
40
70
ENDCHAR
STARTCHAR 0174
ENCODING 372
SWIDTH 727 0
DWIDTH 8 0
BBX 7 10 1 0
BITMAP
10
30
00
82
92
92
92
AA
AA
44
ENDCHAR
STARTCHAR 0175
ENCODING 373
SWIDTH 727 0
DWIDTH 8 0
BBX 7 8 1 0
BITMAP
10
30
00
92
92
92
92
EC
ENDCHAR
STARTCHAR 0176
ENCODING 374
SWIDTH 545 0
DWIDTH 6 0
BBX 5 10 1 0
BITMAP
20
60
00
88
88
50
20
20
20
20
ENDCHAR
STARTCHAR 0177
ENCODING 375
SWIDTH 545 0
DWIDTH 6 0
BBX 5 10 1 -2
BITMAP
20
60
00
88
88
88
78
08
88
70
ENDCHAR
STARTCHAR 0178
ENCODING 376
SWIDTH 545 0
DWIDTH 6 0
BBX 5 9 1 0
BITMAP
50
00
88
88
50
20
20
20
20
ENDCHAR
STARTCHAR 0179
ENCODING 377
SWIDTH 545 0
DWIDTH 6 0
BBX 5 10 1 0
BITMAP
20
40
00
F0
88
08
70
80
88
78
ENDCHAR
STARTCHAR 017A
ENCODING 378
SWIDTH 545 0
DWIDTH 6 0
BBX 5 8 1 0
BITMAP
20
40
00
F8
10
20
40
F8
ENDCHAR
STARTCHAR 017B
ENCODING 379
SWIDTH 545 0
DWIDTH 6 0
BBX 5 9 1 0
BITMAP
20
00
F0
88
08
70
80
88
78
ENDCHAR
STARTCHAR 017C
ENCODING 380
SWIDTH 545 0
DWIDTH 6 0
BBX 5 7 1 0
BITMAP
20
00
F8
10
20
40
F8
ENDCHAR
STARTCHAR 017D
ENCODING 381
SWIDTH 545 0
DWIDTH 6 0
BBX 5 10 1 0
BITMAP
60
20
00
F0
88
08
70
80
88
78
ENDCHAR
STARTCHAR 017E
ENCODING 382
SWIDTH 545 0
DWIDTH 6 0
BBX 5 8 1 0
BITMAP
60
20
00
F8
10
20
40
F8
ENDCHAR
STARTCHAR 0192
ENCODING 402
SWIDTH 545 0
DWIDTH 6 0
BBX 6 8 0 -1
BITMAP
38
44
40
70
40
40
40
C0
ENDCHAR
STARTCHAR 01FC
ENCODING 508
SWIDTH 909 0
DWIDTH 10 0
BBX 9 10 1 0
BITMAP
0800
1000
0000
2700
5880
8800
8E00
F800
8880
8F00
ENDCHAR
STARTCHAR 01FD
ENCODING 509
SWIDTH 1090 0
DWIDTH 12 0
BBX 11 8 1 0
BITMAP
0600
0400
0000
71C0
8A20
8B80
8A20
75C0
ENDCHAR
STARTCHAR 01FE
ENCODING 510
SWIDTH 636 0
DWIDTH 7 0
BBX 5 11 1 0
BITMAP
20
40
00
08
78
98
B8
A8
C8
C8
F0
ENDCHAR
STARTCHAR 01FF
ENCODING 511
SWIDTH 545 0
DWIDTH 6 0
BBX 6 9 0 -1
BITMAP
10
20
04
38
5C
54
64
78
C0
ENDCHAR
STARTCHAR 0218
ENCODING 536
SWIDTH 545 0
DWIDTH 6 0
BBX 5 10 1 -3
BITMAP
F8
80
80
70
08
88
70
ENDCHAR
STARTCHAR 0219
ENCODING 537
SWIDTH 545 0
DWIDTH 6 0
BBX 5 8 1 -3
BITMAP
F8
80
80
70
08
88
70
ENDCHAR
STARTCHAR 021A
ENCODING 538
SWIDTH 545 0
DWIDTH 6 0
BBX 5 10 1 -3
BITMAP
F8
80
80
70
08
88
70
ENDCHAR
STARTCHAR 021B
ENCODING 539
SWIDTH 636 0
DWIDTH 7 0
BBX 6 10 1 -3
BITMAP
F8
80
80
70
08
88
70
ENDCHAR
STARTCHAR 0237
ENCODING 567
SWIDTH 454 0
DWIDTH 5 0
BBX 4 5 1 0
BITMAP
10
10
10
90
60
ENDCHAR
STARTCHAR 02C6
ENCODING 710
SWIDTH 272 0
DWIDTH 3 0
BBX 1 2 1 6
BITMAP
80
80
ENDCHAR
STARTCHAR 02C7
ENCODING 711
SWIDTH 272 0
DWIDTH 3 0
BBX 1 2 1 6
BITMAP
80
80
ENDCHAR
STARTCHAR 02D8
ENCODING 728
SWIDTH 272 0
DWIDTH 3 0
BBX 3 1 0 6
BITMAP
E0
ENDCHAR
STARTCHAR 02D9
ENCODING 729
SWIDTH 272 0
DWIDTH 3 0
BBX 1 1 1 6
BITMAP
80
ENDCHAR
STARTCHAR 02DA
ENCODING 730
SWIDTH 272 0
DWIDTH 3 0
BBX 1 2 1 6
BITMAP
80
80
ENDCHAR
STARTCHAR 02DB
ENCODING 731
SWIDTH 272 0
DWIDTH 3 0
BBX 3 3 0 -2
BITMAP
40
40
E0
ENDCHAR
STARTCHAR 02DC
ENCODING 732
SWIDTH 272 0
DWIDTH 3 0
BBX 3 2 0 6
BITMAP
E0
E0
ENDCHAR
STARTCHAR 02DD
ENCODING 733
SWIDTH 272 0
DWIDTH 3 0
BBX 3 2 0 6
BITMAP
E0
60
ENDCHAR
STARTCHAR 0300
ENCODING 768
SWIDTH 0 0
DWIDTH 0 0
BBX 1 2 1 6
BITMAP
80
80
ENDCHAR
STARTCHAR 0301
ENCODING 769
SWIDTH 0 0
DWIDTH 0 0
BBX 1 2 1 6
BITMAP
80
80
ENDCHAR
STARTCHAR 0302
ENCODING 770
SWIDTH 0 0
DWIDTH 0 0
BBX 1 2 1 6
BITMAP
80
80
ENDCHAR
STARTCHAR 0303
ENCODING 771
SWIDTH 0 0
DWIDTH 0 0
BBX 3 2 0 6
BITMAP
E0
E0
ENDCHAR
STARTCHAR 0304
ENCODING 772
SWIDTH 0 0
DWIDTH 0 0
BBX 3 1 0 6
BITMAP
E0
ENDCHAR
STARTCHAR 0306
ENCODING 774
SWIDTH 0 0
DWIDTH 0 0
BBX 3 1 0 6
BITMAP
E0
ENDCHAR
STARTCHAR 0307
ENCODING 775
SWIDTH 0 0
DWIDTH 0 0
BBX 1 1 1 6
BITMAP
80
ENDCHAR
STARTCHAR 0308
ENCODING 776
SWIDTH 0 0
DWIDTH 0 0
BBX 3 1 0 6
BITMAP
A0
ENDCHAR
STARTCHAR 030A
ENCODING 778
SWIDTH 0 0
DWIDTH 0 0
BBX 1 2 1 5
BITMAP
80
80
ENDCHAR
STARTCHAR 030B
ENCODING 779
SWIDTH 0 0
DWIDTH 0 0
BBX 3 2 0 6
BITMAP
E0
60
ENDCHAR
STARTCHAR 030C
ENCODING 780
SWIDTH 0 0
DWIDTH 0 0
BBX 1 2 1 6
BITMAP
80
80
ENDCHAR
STARTCHAR 0312
ENCODING 786
SWIDTH 0 0
DWIDTH 0 0
BBX 1 2 1 6
BITMAP
80
80
ENDCHAR
STARTCHAR 0326
ENCODING 806
SWIDTH 0 0
DWIDTH 0 0
BBX 2 2 1 -3
BITMAP
80
C0
ENDCHAR
STARTCHAR 0327
ENCODING 807
SWIDTH 0 0
DWIDTH 0 0
BBX 3 3 0 -2
BITMAP
40
20
E0
ENDCHAR
STARTCHAR 0328
ENCODING 808
SWIDTH 0 0
DWIDTH 0 0
BBX 3 3 0 -2
BITMAP
40
40
E0
ENDCHAR
STARTCHAR 0386
ENCODING 902
SWIDTH 545 0
DWIDTH 6 0
BBX 5 10 1 0
BITMAP
10
20
00
20
50
88
88
F8
88
88
ENDCHAR
STARTCHAR 0388
ENCODING 904
SWIDTH 545 0
DWIDTH 6 0
BBX 5 10 1 0
BITMAP
10
20
00
70
88
80
E0
80
88
70
ENDCHAR
STARTCHAR 0389
ENCODING 905
SWIDTH 545 0
DWIDTH 6 0
BBX 5 9 1 0
BITMAP
20
00
88
88
A8
F8
88
88
88
ENDCHAR
STARTCHAR 038A
ENCODING 906
SWIDTH 363 0
DWIDTH 4 0
BBX 3 9 1 0
BITMAP
40
00
E0
40
40
40
40
40
E0
ENDCHAR
STARTCHAR 038C
ENCODING 908
SWIDTH 545 0
DWIDTH 6 0
BBX 5 9 1 0
BITMAP
20
00
70
88
88
88
88
88
70
ENDCHAR
STARTCHAR 038E
ENCODING 910
SWIDTH 545 0
DWIDTH 6 0
BBX 5 9 1 0
BITMAP
20
00
88
88
50
20
20
20
20
ENDCHAR
STARTCHAR 038F
ENCODING 911
SWIDTH 545 0
DWIDTH 6 0
BBX 6 10 0 0
BITMAP
08
10
00
38
44
44
44
44
44
C4
ENDCHAR
STARTCHAR 0391
ENCODING 913
SWIDTH 545 0
DWIDTH 6 0
BBX 5 7 1 0
BITMAP
20
50
88
88
F8
88
88
ENDCHAR
STARTCHAR 0392
ENCODING 914
SWIDTH 545 0
DWIDTH 6 0
BBX 5 7 1 0
BITMAP
70
88
88
B0
88
88
70
ENDCHAR
STARTCHAR 0393
ENCODING 915
SWIDTH 454 0
DWIDTH 5 0
BBX 4 7 1 0
BITMAP
F0
80
80
80
80
80
80
ENDCHAR
STARTCHAR 0395
ENCODING 917
SWIDTH 545 0
DWIDTH 6 0
BBX 5 7 1 0
BITMAP
70
88
80
E0
80
88
70
ENDCHAR
STARTCHAR 0396
ENCODING 918
SWIDTH 545 0
DWIDTH 6 0
BBX 5 7 1 0
BITMAP
F0
88
08
70
80
88
78
ENDCHAR
STARTCHAR 0397
ENCODING 919
SWIDTH 545 0
DWIDTH 6 0
BBX 5 7 1 0
BITMAP
88
88
A8
F8
88
88
88
ENDCHAR
STARTCHAR 0398
ENCODING 920
SWIDTH 545 0
DWIDTH 6 0
BBX 5 7 1 0
BITMAP
70
88
88
E8
88
88
70
ENDCHAR
STARTCHAR 0399
ENCODING 921
SWIDTH 363 0
DWIDTH 4 0
BBX 3 7 1 0
BITMAP
E0
40
40
40
40
40
E0
ENDCHAR
STARTCHAR 039A
ENCODING 922
SWIDTH 545 0
DWIDTH 6 0
BBX 5 7 1 0
BITMAP
48
90
A0
C0
A0
90
88
ENDCHAR
STARTCHAR 039B
ENCODING 923
SWIDTH 545 0
DWIDTH 6 0
BBX 5 7 1 0
BITMAP
20
50
50
88
88
88
88
ENDCHAR
STARTCHAR 039C
ENCODING 924
SWIDTH 727 0
DWIDTH 8 0
BBX 7 7 1 0
BITMAP
44
AA
AA
92
92
92
82
ENDCHAR
STARTCHAR 039D
ENCODING 925
SWIDTH 545 0
DWIDTH 6 0
BBX 5 7 1 0
BITMAP
88
C8
A8
A8
A8
98
88
ENDCHAR
STARTCHAR 039E
ENCODING 926
SWIDTH 363 0
DWIDTH 4 0
BBX 3 7 1 0
BITMAP
E0
00
00
E0
00
00
E0
ENDCHAR
STARTCHAR 039F
ENCODING 927
SWIDTH 545 0
DWIDTH 6 0
BBX 5 7 1 0
BITMAP
70
88
88
88
88
88
70
ENDCHAR
STARTCHAR 03A0
ENCODING 928
SWIDTH 545 0
DWIDTH 6 0
BBX 5 7 1 0
BITMAP
F8
88
88
88
88
88
88
ENDCHAR
STARTCHAR 03A1
ENCODING 929
SWIDTH 545 0
DWIDTH 6 0
BBX 5 7 1 0
BITMAP
70
88
88
88
F0
80
80
ENDCHAR
STARTCHAR 03A3
ENCODING 931
SWIDTH 727 0
DWIDTH 8 0
BBX 7 7 1 0
BITMAP
7E
80
60
1C
60
80
7E
ENDCHAR
STARTCHAR 03A4
ENCODING 932
SWIDTH 545 0
DWIDTH 6 0
BBX 5 7 1 0
BITMAP
70
A8
20
20
20
20
20
ENDCHAR
STARTCHAR 03A5
ENCODING 933
SWIDTH 545 0
DWIDTH 6 0
BBX 5 7 1 0
BITMAP
88
88
50
20
20
20
20
ENDCHAR
STARTCHAR 03A6
ENCODING 934
SWIDTH 545 0
DWIDTH 6 0
BBX 5 7 1 0
BITMAP
20
50
A8
A8
A8
50
20
ENDCHAR
STARTCHAR 03A7
ENCODING 935
SWIDTH 545 0
DWIDTH 6 0
BBX 5 7 1 0
BITMAP
88
50
50
20
50
50
88
ENDCHAR
STARTCHAR 03A8
ENCODING 936
SWIDTH 545 0
DWIDTH 6 0
BBX 5 7 1 0
BITMAP
A8
A8
A8
F8
20
20
20
ENDCHAR
STARTCHAR 03AA
ENCODING 938
SWIDTH 363 0
DWIDTH 4 0
BBX 3 9 1 0
BITMAP
A0
00
E0
40
40
40
40
40
E0
ENDCHAR
STARTCHAR 03AB
ENCODING 939
SWIDTH 545 0
DWIDTH 6 0
BBX 5 9 1 0
BITMAP
50
00
88
88
50
20
20
20
20
ENDCHAR
STARTCHAR 03AC
ENCODING 940
SWIDTH 545 0
DWIDTH 6 0
BBX 5 8 1 -1
BITMAP
20
00
70
88
88
88
78
08
ENDCHAR
STARTCHAR 03AD
ENCODING 941
SWIDTH 545 0
DWIDTH 6 0
BBX 5 7 1 0
BITMAP
20
00
70
88
E0
88
70
ENDCHAR
STARTCHAR 03AE
ENCODING 942
SWIDTH 545 0
DWIDTH 6 0
BBX 5 9 1 -2
BITMAP
20
00
F0
88
88
88
88
08
08
ENDCHAR
STARTCHAR 03AF
ENCODING 943
SWIDTH 363 0
DWIDTH 4 0
BBX 3 9 1 0
BITMAP
40
00
E0
40
40
40
40
40
E0
ENDCHAR
STARTCHAR 03B1
ENCODING 945
SWIDTH 545 0
DWIDTH 6 0
BBX 5 6 1 -1
BITMAP
70
88
88
88
78
08
ENDCHAR
STARTCHAR 03B2
ENCODING 946
SWIDTH 545 0
DWIDTH 6 0
BBX 5 9 1 -2
BITMAP
F0
88
88
B0
88
88
B0
80
80
ENDCHAR
STARTCHAR 03B3
ENCODING 947
SWIDTH 545 0
DWIDTH 6 0
BBX 5 5 1 0
BITMAP
88
50
70
20
20
ENDCHAR
STARTCHAR 03B4
ENCODING 948
SWIDTH 545 0
DWIDTH 6 0
BBX 5 7 1 0
BITMAP
10
20
70
88
88
88
70
ENDCHAR
STARTCHAR 03B5
ENCODING 949
SWIDTH 545 0
DWIDTH 6 0
BBX 5 5 1 0
BITMAP
70
88
E0
88
70
ENDCHAR
STARTCHAR 03B6
ENCODING 950
SWIDTH 545 0
DWIDTH 6 0
BBX 5 9 1 -2
BITMAP
70
08
08
70
80
88
78
08
18
ENDCHAR
STARTCHAR 03B7
ENCODING 951
SWIDTH 545 0
DWIDTH 6 0
BBX 5 7 1 -2
BITMAP
F0
88
88
88
88
08
08
ENDCHAR
STARTCHAR 03B8
ENCODING 952
SWIDTH 545 0
DWIDTH 6 0
BBX 5 5 1 0
BITMAP
70
88
E8
88
70
ENDCHAR
STARTCHAR 03B9
ENCODING 953
SWIDTH 181 0
DWIDTH 2 0
BBX 1 7 1 0
BITMAP
80
00
80
80
80
80
80
ENDCHAR
STARTCHAR 03BA
ENCODING 954
SWIDTH 545 0
DWIDTH 6 0
BBX 5 7 1 0
BITMAP
80
80
88
B0
C0
B0
88
ENDCHAR
STARTCHAR 03BB
ENCODING 955
SWIDTH 545 0
DWIDTH 6 0
BBX 5 7 1 0
BITMAP
20
20
20
20
50
88
88
ENDCHAR
STARTCHAR 03BC
ENCODING 956
SWIDTH 727 0
DWIDTH 8 0
BBX 7 7 1 0
BITMAP
44
AA
AA
92
92
92
82
ENDCHAR
STARTCHAR 03BD
ENCODING 957
SWIDTH 545 0
DWIDTH 6 0
BBX 5 5 1 0
BITMAP
88
88
50
50
20
ENDCHAR
STARTCHAR 03BE
ENCODING 958
SWIDTH 545 0
DWIDTH 6 0
BBX 6 9 0 -2
BITMAP
F8
44
40
38
40
44
3C
04
1C
ENDCHAR
STARTCHAR 03BF
ENCODING 959
SWIDTH 545 0
DWIDTH 6 0
BBX 5 5 1 0
BITMAP
70
88
88
88
70
ENDCHAR
STARTCHAR 03C0
ENCODING 960
SWIDTH 909 0
DWIDTH 10 0
BBX 9 5 1 0
BITMAP
7700
AA80
2200
2200
2200
ENDCHAR
STARTCHAR 03C1
ENCODING 961
SWIDTH 545 0
DWIDTH 6 0
BBX 5 7 1 -2
BITMAP
70
88
88
88
F0
80
80
ENDCHAR
STARTCHAR 03C3
ENCODING 963
SWIDTH 545 0
DWIDTH 6 0
BBX 5 5 1 0
BITMAP
78
88
88
88
70
ENDCHAR
STARTCHAR 03C4
ENCODING 964
SWIDTH 545 0
DWIDTH 6 0
BBX 5 5 1 0
BITMAP
70
A8
20
20
20
ENDCHAR
STARTCHAR 03C5
ENCODING 965
SWIDTH 545 0
DWIDTH 6 0
BBX 5 8 1 0
BITMAP
10
20
00
88
88
88
88
70
ENDCHAR
STARTCHAR 03C6
ENCODING 966
SWIDTH 545 0
DWIDTH 6 0
BBX 5 7 1 0
BITMAP
20
70
A8
A8
A8
70
20
ENDCHAR
STARTCHAR 03C7
ENCODING 967
SWIDTH 545 0
DWIDTH 6 0
BBX 5 5 1 0
BITMAP
88
50
20
50
88
ENDCHAR
STARTCHAR 03C8
ENCODING 968
SWIDTH 545 0
DWIDTH 6 0
BBX 5 7 1 0
BITMAP
20
A8
A8
A8
A8
70
20
ENDCHAR
STARTCHAR 03C9
ENCODING 969
SWIDTH 727 0
DWIDTH 8 0
BBX 7 5 1 0
BITMAP
92
92
92
92
EC
ENDCHAR
STARTCHAR 03CA
ENCODING 970
SWIDTH 363 0
DWIDTH 4 0
BBX 3 9 1 0
BITMAP
A0
00
E0
40
40
40
40
40
E0
ENDCHAR
STARTCHAR 03CB
ENCODING 971
SWIDTH 545 0
DWIDTH 6 0
BBX 5 9 1 0
BITMAP
50
00
88
88
50
20
20
20
20
ENDCHAR
STARTCHAR 03CC
ENCODING 972
SWIDTH 545 0
DWIDTH 6 0
BBX 5 7 1 0
BITMAP
20
00
70
88
88
88
70
ENDCHAR
STARTCHAR 03CD
ENCODING 973
SWIDTH 545 0
DWIDTH 6 0
BBX 5 7 1 0
BITMAP
20
00
88
88
88
88
70
ENDCHAR
STARTCHAR 03CE
ENCODING 974
SWIDTH 727 0
DWIDTH 8 0
BBX 7 7 1 0
BITMAP
10
00
92
92
92
92
EC
ENDCHAR
STARTCHAR 0401
ENCODING 1025
SWIDTH 545 0
DWIDTH 6 0
BBX 5 9 1 0
BITMAP
50
00
70
88
80
E0
80
88
70
ENDCHAR
STARTCHAR 0402
ENCODING 1026
SWIDTH 545 0
DWIDTH 6 0
BBX 6 7 0 0
BITMAP
E0
40
78
44
44
44
38
ENDCHAR
STARTCHAR 0403
ENCODING 1027
SWIDTH 454 0
DWIDTH 5 0
BBX 4 7 1 0
BITMAP
F0
80
80
80
80
80
80
ENDCHAR
STARTCHAR 0404
ENCODING 1028
SWIDTH 545 0
DWIDTH 6 0
BBX 5 7 1 0
BITMAP
70
88
80
70
80
88
70
ENDCHAR
STARTCHAR 0405
ENCODING 1029
SWIDTH 545 0
DWIDTH 6 0
BBX 5 5 1 0
BITMAP
78
80
70
08
F0
ENDCHAR
STARTCHAR 0407
ENCODING 1031
SWIDTH 272 0
DWIDTH 3 0
BBX 3 7 0 0
BITMAP
A0
00
40
40
40
40
40
ENDCHAR
STARTCHAR 0408
ENCODING 1032
SWIDTH 545 0
DWIDTH 6 0
BBX 5 7 1 0
BITMAP
70
08
08
08
88
88
70
ENDCHAR
STARTCHAR 0409
ENCODING 1033
SWIDTH 636 0
DWIDTH 7 0
BBX 6 7 1 0
BITMAP
7C
44
44
44
44
44
C4
ENDCHAR
STARTCHAR 040A
ENCODING 1034
SWIDTH 909 0
DWIDTH 10 0
BBX 9 7 1 0
BITMAP
8800
8800
8F00
F880
8880
8880
8F00
ENDCHAR
STARTCHAR 040B
ENCODING 1035
SWIDTH 545 0
DWIDTH 6 0
BBX 6 7 0 0
BITMAP
E0
40
58
64
44
44
44
ENDCHAR
STARTCHAR 040C
ENCODING 1036
SWIDTH 545 0
DWIDTH 6 0
BBX 5 7 1 0
BITMAP
48
90
A0
C0
A0
90
88
ENDCHAR
STARTCHAR 040E
ENCODING 1038
SWIDTH 545 0
DWIDTH 6 0
BBX 5 9 1 0
BITMAP
70
00
88
88
50
20
20
20
20
ENDCHAR
STARTCHAR 040F
ENCODING 1039
SWIDTH 545 0
DWIDTH 6 0
BBX 5 8 1 -1
BITMAP
88
88
88
88
88
88
F8
20
ENDCHAR
STARTCHAR 0410
ENCODING 1040
SWIDTH 545 0
DWIDTH 6 0
BBX 5 7 1 0
BITMAP
20
50
88
88
F8
88
88
ENDCHAR
STARTCHAR 0411
ENCODING 1041
SWIDTH 545 0
DWIDTH 6 0
BBX 5 7 1 0
BITMAP
F0
88
80
F0
88
88
70
ENDCHAR
STARTCHAR 0412
ENCODING 1042
SWIDTH 545 0
DWIDTH 6 0
BBX 5 7 1 0
BITMAP
70
88
88
B0
88
88
70
ENDCHAR
STARTCHAR 0413
ENCODING 1043
SWIDTH 454 0
DWIDTH 5 0
BBX 4 7 1 0
BITMAP
F0
80
80
80
80
80
80
ENDCHAR
STARTCHAR 0414
ENCODING 1044
SWIDTH 636 0
DWIDTH 7 0
BBX 6 7 1 0
BITMAP
7C
44
44
44
C4
FC
84
ENDCHAR
STARTCHAR 0415
ENCODING 1045
SWIDTH 545 0
DWIDTH 6 0
BBX 5 7 1 0
BITMAP
70
88
80
E0
80
88
70
ENDCHAR
STARTCHAR 0416
ENCODING 1046
SWIDTH 909 0
DWIDTH 10 0
BBX 9 7 1 0
BITMAP
8880
4900
2A00
1C00
2A00
4900
8880
ENDCHAR
STARTCHAR 0417
ENCODING 1047
SWIDTH 545 0
DWIDTH 6 0
BBX 5 7 1 0
BITMAP
70
88
08
70
08
88
70
ENDCHAR
STARTCHAR 0418
ENCODING 1048
SWIDTH 545 0
DWIDTH 6 0
BBX 5 7 1 0
BITMAP
88
98
A8
A8
A8
C8
88
ENDCHAR
STARTCHAR 0419
ENCODING 1049
SWIDTH 545 0
DWIDTH 6 0
BBX 5 9 1 0
BITMAP
70
00
88
98
A8
A8
A8
C8
88
ENDCHAR
STARTCHAR 041A
ENCODING 1050
SWIDTH 545 0
DWIDTH 6 0
BBX 5 10 1 0
BITMAP
10
20
00
48
90
A0
C0
A0
90
88
ENDCHAR
STARTCHAR 041B
ENCODING 1051
SWIDTH 636 0
DWIDTH 7 0
BBX 6 7 1 0
BITMAP
7C
44
44
44
44
44
C4
ENDCHAR
STARTCHAR 041C
ENCODING 1052
SWIDTH 727 0
DWIDTH 8 0
BBX 7 7 1 0
BITMAP
44
AA
AA
92
92
92
82
ENDCHAR
STARTCHAR 041D
ENCODING 1053
SWIDTH 545 0
DWIDTH 6 0
BBX 5 7 1 0
BITMAP
88
88
88
F8
88
88
88
ENDCHAR
STARTCHAR 0420
ENCODING 1056
SWIDTH 545 0
DWIDTH 6 0
BBX 5 7 1 0
BITMAP
70
88
88
88
F0
80
80
ENDCHAR
STARTCHAR 0421
ENCODING 1057
SWIDTH 545 0
DWIDTH 6 0
BBX 5 7 1 0
BITMAP
70
88
88
80
88
88
70
ENDCHAR
STARTCHAR 0422
ENCODING 1058
SWIDTH 545 0
DWIDTH 6 0
BBX 5 7 1 0
BITMAP
70
A8
20
20
20
20
20
ENDCHAR
STARTCHAR 0423
ENCODING 1059
SWIDTH 545 0
DWIDTH 6 0
BBX 5 7 1 0
BITMAP
88
88
50
20
20
20
20
ENDCHAR
STARTCHAR 0424
ENCODING 1060
SWIDTH 545 0
DWIDTH 6 0
BBX 5 7 1 0
BITMAP
20
70
A8
A8
A8
70
20
ENDCHAR
STARTCHAR 0425
ENCODING 1061
SWIDTH 545 0
DWIDTH 6 0
BBX 5 7 1 0
BITMAP
88
50
50
20
50
50
88
ENDCHAR
STARTCHAR 0426
ENCODING 1062
SWIDTH 545 0
DWIDTH 6 0
BBX 5 8 1 -1
BITMAP
88
88
88
88
88
88
F8
08
ENDCHAR
STARTCHAR 0427
ENCODING 1063
SWIDTH 545 0
DWIDTH 6 0
BBX 5 7 1 0
BITMAP
88
88
88
78
08
08
08
ENDCHAR
STARTCHAR 0428
ENCODING 1064
SWIDTH 727 0
DWIDTH 8 0
BBX 7 7 1 0
BITMAP
82
92
92
92
AA
AA
44
ENDCHAR
STARTCHAR 0429
ENCODING 1065
SWIDTH 727 0
DWIDTH 8 0
BBX 7 8 1 -1
BITMAP
82
92
92
92
AA
AA
46
02
ENDCHAR
STARTCHAR 042A
ENCODING 1066
SWIDTH 545 0
DWIDTH 6 0
BBX 6 7 0 0
BITMAP
E0
40
78
44
44
44
38
ENDCHAR
STARTCHAR 042B
ENCODING 1067
SWIDTH 727 0
DWIDTH 8 0
BBX 7 7 1 0
BITMAP
80
80
82
F2
8A
8A
72
ENDCHAR
STARTCHAR 042C
ENCODING 1068
SWIDTH 545 0
DWIDTH 6 0
BBX 5 7 1 0
BITMAP
80
80
F0
88
88
88
70
ENDCHAR
STARTCHAR 042D
ENCODING 1069
SWIDTH 545 0
DWIDTH 6 0
BBX 5 7 1 0
BITMAP
70
88
08
70
08
88
70
ENDCHAR
STARTCHAR 042E
ENCODING 1070
SWIDTH 818 0
DWIDTH 9 0
BBX 8 7 1 0
BITMAP
8E
91
91
F1
91
91
8E
ENDCHAR
STARTCHAR 042F
ENCODING 1071
SWIDTH 545 0
DWIDTH 6 0
BBX 5 7 1 0
BITMAP
70
88
88
88
78
48
88
ENDCHAR
STARTCHAR 0430
ENCODING 1072
SWIDTH 636 0
DWIDTH 7 0
BBX 6 5 1 0
BITMAP
F0
F8
88
88
74
ENDCHAR
STARTCHAR 0431
ENCODING 1073
SWIDTH 545 0
DWIDTH 6 0
BBX 5 7 1 0
BITMAP
70
88
80
F0
88
88
70
ENDCHAR
STARTCHAR 0432
ENCODING 1074
SWIDTH 545 0
DWIDTH 6 0
BBX 5 5 1 0
BITMAP
70
88
B0
88
70
ENDCHAR
STARTCHAR 0433
ENCODING 1075
SWIDTH 454 0
DWIDTH 5 0
BBX 4 5 1 0
BITMAP
F0
80
80
80
80
ENDCHAR
STARTCHAR 0434
ENCODING 1076
SWIDTH 636 0
DWIDTH 7 0
BBX 6 5 1 0
BITMAP
7C
44
C4
FC
84
ENDCHAR
STARTCHAR 0435
ENCODING 1077
SWIDTH 545 0
DWIDTH 6 0
BBX 5 5 1 0
BITMAP
70
88
E0
88
70
ENDCHAR
STARTCHAR 0436
ENCODING 1078
SWIDTH 727 0
DWIDTH 8 0
BBX 7 5 1 0
BITMAP
96
58
38
D4
92
ENDCHAR
STARTCHAR 0437
ENCODING 1079
SWIDTH 545 0
DWIDTH 6 0
BBX 5 5 1 0
BITMAP
70
88
38
88
70
ENDCHAR
STARTCHAR 0438
ENCODING 1080
SWIDTH 545 0
DWIDTH 6 0
BBX 5 5 1 0
BITMAP
88
98
A8
C8
88
ENDCHAR
STARTCHAR 0439
ENCODING 1081
SWIDTH 545 0
DWIDTH 6 0
BBX 5 7 1 0
BITMAP
70
00
88
98
A8
C8
88
ENDCHAR
STARTCHAR 043A
ENCODING 1082
SWIDTH 545 0
DWIDTH 6 0
BBX 5 5 1 0
BITMAP
88
B0
C0
B0
88
ENDCHAR
STARTCHAR 043B
ENCODING 1083
SWIDTH 636 0
DWIDTH 7 0
BBX 6 5 1 0
BITMAP
7C
44
44
44
C4
ENDCHAR
STARTCHAR 043C
ENCODING 1084
SWIDTH 727 0
DWIDTH 8 0
BBX 7 5 1 0
BITMAP
44
AA
AA
92
82
ENDCHAR
STARTCHAR 043D
ENCODING 1085
SWIDTH 545 0
DWIDTH 6 0
BBX 5 5 1 0
BITMAP
88
88
F8
88
88
ENDCHAR
STARTCHAR 043E
ENCODING 1086
SWIDTH 545 0
DWIDTH 6 0
BBX 5 5 1 0
BITMAP
70
88
88
88
70
ENDCHAR
STARTCHAR 043F
ENCODING 1087
SWIDTH 545 0
DWIDTH 6 0
BBX 5 5 1 0
BITMAP
F8
88
88
88
88
ENDCHAR
STARTCHAR 0440
ENCODING 1088
SWIDTH 545 0
DWIDTH 6 0
BBX 5 7 1 -2
BITMAP
70
88
88
88
F0
80
80
ENDCHAR
STARTCHAR 0441
ENCODING 1089
SWIDTH 545 0
DWIDTH 6 0
BBX 5 5 1 0
BITMAP
70
88
80
88
70
ENDCHAR
STARTCHAR 0442
ENCODING 1090
SWIDTH 545 0
DWIDTH 6 0
BBX 5 5 1 0
BITMAP
70
A8
20
20
20
ENDCHAR
STARTCHAR 0443
ENCODING 1091
SWIDTH 545 0
DWIDTH 6 0
BBX 5 7 1 -2
BITMAP
88
88
88
78
08
88
70
ENDCHAR
STARTCHAR 0444
ENCODING 1092
SWIDTH 545 0
DWIDTH 6 0
BBX 5 7 0 0
BITMAP
20
70
A8
A8
A8
70
20
ENDCHAR
STARTCHAR 0445
ENCODING 1093
SWIDTH 545 0
DWIDTH 6 0
BBX 5 5 1 0
BITMAP
88
50
20
50
88
ENDCHAR
STARTCHAR 0446
ENCODING 1094
SWIDTH 636 0
DWIDTH 7 0
BBX 5 6 1 -1
BITMAP
88
88
88
88
F8
08
ENDCHAR
STARTCHAR 0447
ENCODING 1095
SWIDTH 545 0
DWIDTH 6 0
BBX 5 5 1 0
BITMAP
88
88
88
78
08
ENDCHAR
STARTCHAR 0448
ENCODING 1096
SWIDTH 727 0
DWIDTH 8 0
BBX 7 5 1 0
BITMAP
92
92
92
92
EE
ENDCHAR
STARTCHAR 0449
ENCODING 1097
SWIDTH 727 0
DWIDTH 8 0
BBX 7 6 1 -1
BITMAP
92
92
92
92
EE
02
ENDCHAR
STARTCHAR 044A
ENCODING 1098
SWIDTH 545 0
DWIDTH 6 0
BBX 6 7 0 0
BITMAP
C0
40
78
44
44
44
38
ENDCHAR
STARTCHAR 044B
ENCODING 1099
SWIDTH 727 0
DWIDTH 8 0
BBX 7 7 1 0
BITMAP
82
82
F2
8A
8A
8A
72
ENDCHAR
STARTCHAR 044C
ENCODING 1100
SWIDTH 545 0
DWIDTH 6 0
BBX 5 7 0 0
BITMAP
80
80
F0
88
88
88
70
ENDCHAR
STARTCHAR 044D
ENCODING 1101
SWIDTH 545 0
DWIDTH 6 0
BBX 5 5 1 0
BITMAP
70
88
38
88
70
ENDCHAR
STARTCHAR 044E
ENCODING 1102
SWIDTH 818 0
DWIDTH 9 0
BBX 8 5 1 0
BITMAP
8E
91
F1
91
8E
ENDCHAR
STARTCHAR 044F
ENCODING 1103
SWIDTH 545 0
DWIDTH 6 0
BBX 5 5 1 0
BITMAP
70
88
78
48
88
ENDCHAR
STARTCHAR 0451
ENCODING 1105
SWIDTH 545 0
DWIDTH 6 0
BBX 5 7 1 0
BITMAP
D0
00
70
88
E0
88
70
ENDCHAR
STARTCHAR 0452
ENCODING 1106
SWIDTH 636 0
DWIDTH 7 0
BBX 5 9 1 -2
BITMAP
C0
80
B0
C8
88
88
88
48
30
ENDCHAR
STARTCHAR 0453
ENCODING 1107
SWIDTH 545 0
DWIDTH 6 0
BBX 5 8 1 0
BITMAP
20
60
00
70
88
80
80
80
ENDCHAR
STARTCHAR 0454
ENCODING 1108
SWIDTH 545 0
DWIDTH 6 0
BBX 5 5 1 0
BITMAP
70
88
E0
88
70
ENDCHAR
STARTCHAR 0455
ENCODING 1109
SWIDTH 545 0
DWIDTH 6 0
BBX 5 5 1 0
BITMAP
78
80
70
08
F0
ENDCHAR
STARTCHAR 0456
ENCODING 1110
SWIDTH 181 0
DWIDTH 2 0
BBX 1 7 1 0
BITMAP
80
00
80
80
80
80
80
ENDCHAR
STARTCHAR 0457
ENCODING 1111
SWIDTH 363 0
DWIDTH 4 0
BBX 4 5 0 0
BITMAP
90
00
40
40
40
ENDCHAR
STARTCHAR 0458
ENCODING 1112
SWIDTH 454 0
DWIDTH 5 0
BBX 4 5 1 0
BITMAP
10
10
10
90
60
ENDCHAR
STARTCHAR 0459
ENCODING 1113
SWIDTH 909 0
DWIDTH 10 0
BBX 9 5 1 0
BITMAP
7800
4F00
4880
4880
CF00
ENDCHAR
STARTCHAR 045A
ENCODING 1114
SWIDTH 818 0
DWIDTH 9 0
BBX 8 5 1 0
BITMAP
90
9E
F1
91
9E
ENDCHAR
STARTCHAR 045B
ENCODING 1115
SWIDTH 545 0
DWIDTH 6 0
BBX 5 7 1 0
BITMAP
C0
80
B0
C8
88
88
88
ENDCHAR
STARTCHAR 045C
ENCODING 1116
SWIDTH 545 0
DWIDTH 6 0
BBX 5 8 1 0
BITMAP
20
60
00
88
B0
C0
B0
88
ENDCHAR
STARTCHAR 045E
ENCODING 1118
SWIDTH 545 0
DWIDTH 6 0
BBX 5 9 1 -2
BITMAP
70
00
88
88
88
78
08
88
70
ENDCHAR
STARTCHAR 045F
ENCODING 1119
SWIDTH 545 0
DWIDTH 6 0
BBX 5 6 1 -1
BITMAP
88
88
88
88
F8
20
ENDCHAR
STARTCHAR 0490
ENCODING 1168
SWIDTH 454 0
DWIDTH 5 0
BBX 4 8 1 0
BITMAP
10
F0
80
80
80
80
80
80
ENDCHAR
STARTCHAR 0491
ENCODING 1169
SWIDTH 545 0
DWIDTH 6 0
BBX 5 7 1 0
BITMAP
88
88
50
20
20
20
20
ENDCHAR
STARTCHAR 1E80
ENCODING 7808
SWIDTH 727 0
DWIDTH 8 0
BBX 7 10 1 0
BITMAP
20
10
00
82
92
92
92
AA
AA
44
ENDCHAR
STARTCHAR 1E81
ENCODING 7809
SWIDTH 727 0
DWIDTH 8 0
BBX 7 8 1 0
BITMAP
20
10
00
92
92
92
92
EC
ENDCHAR
STARTCHAR 1E82
ENCODING 7810
SWIDTH 727 0
DWIDTH 8 0
BBX 7 10 1 0
BITMAP
10
20
00
82
92
92
92
AA
AA
44
ENDCHAR
STARTCHAR 1E83
ENCODING 7811
SWIDTH 727 0
DWIDTH 8 0
BBX 7 8 1 0
BITMAP
10
20
00
92
92
92
92
EC
ENDCHAR
STARTCHAR 1E84
ENCODING 7812
SWIDTH 727 0
DWIDTH 8 0
BBX 7 9 1 0
BITMAP
28
00
82
92
92
92
AA
AA
44
ENDCHAR
STARTCHAR 1E85
ENCODING 7813
SWIDTH 727 0
DWIDTH 8 0
BBX 7 7 1 0
BITMAP
28
00
92
92
92
92
EC
ENDCHAR
STARTCHAR 1E9E
ENCODING 7838
SWIDTH 636 0
DWIDTH 7 0
BBX 6 7 1 0
BITMAP
F8
8C
8C
98
8C
8C
F8
ENDCHAR
STARTCHAR 1EF2
ENCODING 7922
SWIDTH 545 0
DWIDTH 6 0
BBX 5 10 1 0
BITMAP
40
20
00
88
88
50
20
20
20
20
ENDCHAR
STARTCHAR 1EF3
ENCODING 7923
SWIDTH 545 0
DWIDTH 6 0
BBX 5 10 1 -2
BITMAP
40
20
00
88
88
88
78
08
88
70
ENDCHAR
STARTCHAR 2013
ENCODING 8211
SWIDTH 363 0
DWIDTH 4 0
BBX 3 1 1 3
BITMAP
E0
ENDCHAR
STARTCHAR 2014
ENCODING 8212
SWIDTH 545 0
DWIDTH 6 0
BBX 4 1 1 3
BITMAP
F0
ENDCHAR
STARTCHAR 2018
ENCODING 8216
SWIDTH 272 0
DWIDTH 3 0
BBX 1 2 1 5
BITMAP
80
80
ENDCHAR
STARTCHAR 2019
ENCODING 8217
SWIDTH 272 0
DWIDTH 3 0
BBX 1 2 1 5
BITMAP
80
80
ENDCHAR
STARTCHAR 201A
ENCODING 8218
SWIDTH 272 0
DWIDTH 3 0
BBX 1 2 1 -1
BITMAP
80
80
ENDCHAR
STARTCHAR 201C
ENCODING 8220
SWIDTH 454 0
DWIDTH 5 0
BBX 3 2 1 5
BITMAP
A0
A0
ENDCHAR
STARTCHAR 201D
ENCODING 8221
SWIDTH 454 0
DWIDTH 5 0
BBX 3 2 1 5
BITMAP
A0
A0
ENDCHAR
STARTCHAR 201E
ENCODING 8222
SWIDTH 454 0
DWIDTH 5 0
BBX 3 2 1 -1
BITMAP
A0
A0
ENDCHAR
STARTCHAR 2020
ENCODING 8224
SWIDTH 363 0
DWIDTH 4 0
BBX 3 7 1 0
BITMAP
40
E0
40
40
40
40
40
ENDCHAR
STARTCHAR 2022
ENCODING 8226
SWIDTH 272 0
DWIDTH 3 0
BBX 1 1 1 3
BITMAP
80
ENDCHAR
STARTCHAR 2026
ENCODING 8230
SWIDTH 636 0
DWIDTH 7 0
BBX 5 1 1 0
BITMAP
A8
ENDCHAR
STARTCHAR 2030
ENCODING 8240
SWIDTH 636 0
DWIDTH 7 0
BBX 6 9 0 -1
BITMAP
60
90
90
60
FC
00
6C
94
6C
ENDCHAR
STARTCHAR 2039
ENCODING 8249
SWIDTH 545 0
DWIDTH 6 0
BBX 5 9 1 -1
BITMAP
08
10
20
40
80
40
20
10
08
ENDCHAR
STARTCHAR 203A
ENCODING 8250
SWIDTH 545 0
DWIDTH 6 0
BBX 5 9 0 -1
BITMAP
80
40
20
10
08
10
20
40
80
ENDCHAR
STARTCHAR 203C
ENCODING 8252
SWIDTH 454 0
DWIDTH 5 0
BBX 3 7 1 0
BITMAP
A0
A0
A0
A0
A0
00
A0
ENDCHAR
STARTCHAR 2070
ENCODING 8304
SWIDTH 363 0
DWIDTH 4 0
BBX 2 4 1 3
BITMAP
C0
C0
C0
C0
ENDCHAR
STARTCHAR 2074
ENCODING 8308
SWIDTH 363 0
DWIDTH 4 0
BBX 2 4 1 3
BITMAP
40
C0
C0
40
ENDCHAR
STARTCHAR 2075
ENCODING 8309
SWIDTH 363 0
DWIDTH 4 0
BBX 2 4 1 3
BITMAP
C0
C0
C0
C0
ENDCHAR
STARTCHAR 2076
ENCODING 8310
SWIDTH 363 0
DWIDTH 4 0
BBX 2 4 1 3
BITMAP
C0
C0
C0
C0
ENDCHAR
STARTCHAR 2077
ENCODING 8311
SWIDTH 363 0
DWIDTH 4 0
BBX 2 4 1 3
BITMAP
C0
40
40
40
ENDCHAR
STARTCHAR 2078
ENCODING 8312
SWIDTH 363 0
DWIDTH 4 0
BBX 2 4 1 3
BITMAP
C0
C0
C0
C0
ENDCHAR
STARTCHAR 2079
ENCODING 8313
SWIDTH 363 0
DWIDTH 4 0
BBX 2 4 1 3
BITMAP
C0
C0
C0
C0
ENDCHAR
STARTCHAR 2080
ENCODING 8320
SWIDTH 363 0
DWIDTH 4 0
BBX 2 4 1 0
BITMAP
C0
C0
C0
C0
ENDCHAR
STARTCHAR 2081
ENCODING 8321
SWIDTH 272 0
DWIDTH 3 0
BBX 1 4 1 0
BITMAP
80
80
80
80
ENDCHAR
STARTCHAR 2082
ENCODING 8322
SWIDTH 363 0
DWIDTH 4 0
BBX 2 4 1 0
BITMAP
C0
C0
C0
C0
ENDCHAR
STARTCHAR 2083
ENCODING 8323
SWIDTH 363 0
DWIDTH 4 0
BBX 2 4 1 0
BITMAP
C0
C0
C0
C0
ENDCHAR
STARTCHAR 2084
ENCODING 8324
SWIDTH 363 0
DWIDTH 4 0
BBX 2 4 1 0
BITMAP
40
C0
C0
40
ENDCHAR
STARTCHAR 2085
ENCODING 8325
SWIDTH 363 0
DWIDTH 4 0
BBX 2 4 1 0
BITMAP
C0
C0
C0
C0
ENDCHAR
STARTCHAR 2086
ENCODING 8326
SWIDTH 363 0
DWIDTH 4 0
BBX 2 4 1 0
BITMAP
C0
C0
C0
C0
ENDCHAR
STARTCHAR 2087
ENCODING 8327
SWIDTH 363 0
DWIDTH 4 0
BBX 2 4 1 0
BITMAP
C0
40
40
40
ENDCHAR
STARTCHAR 2088
ENCODING 8328
SWIDTH 363 0
DWIDTH 4 0
BBX 2 4 1 0
BITMAP
C0
C0
C0
C0
ENDCHAR
STARTCHAR 2089
ENCODING 8329
SWIDTH 363 0
DWIDTH 4 0
BBX 2 4 1 0
BITMAP
C0
C0
C0
C0
ENDCHAR
STARTCHAR 20A1
ENCODING 8353
SWIDTH 545 0
DWIDTH 6 0
BBX 5 9 1 -1
BITMAP
30
70
E8
E8
E0
E8
E8
70
40
ENDCHAR
STARTCHAR 20A3
ENCODING 8355
SWIDTH 545 0
DWIDTH 6 0
BBX 6 7 0 0
BITMAP
78
44
40
70
40
40
C0
ENDCHAR
STARTCHAR 20A4
ENCODING 8356
SWIDTH 636 0
DWIDTH 7 0
BBX 6 7 1 0
BITMAP
38
44
70
40
70
44
F8
ENDCHAR
STARTCHAR 20A7
ENCODING 8359
SWIDTH 1181 0
DWIDTH 13 0
BBX 11 7 1 0
BITMAP
7000
8800
8800
8800
F760
8260
8360
ENDCHAR
STARTCHAR 20AC
ENCODING 8364
SWIDTH 545 0
DWIDTH 6 0
BBX 5 7 1 0
BITMAP
70
88
E8
80
E8
88
70
ENDCHAR
STARTCHAR 2116
ENCODING 8470
SWIDTH 1181 0
DWIDTH 13 0
BBX 11 7 1 0
BITMAP
89C0
CA20
AA20
AA20
A9C0
9800
89C0
ENDCHAR
STARTCHAR 2122
ENCODING 8482
SWIDTH 818 0
DWIDTH 9 0
BBX 7 3 1 4
BITMAP
DE
96
96
ENDCHAR
STARTCHAR 2126
ENCODING 8486
SWIDTH 545 0
DWIDTH 6 0
BBX 6 7 0 0
BITMAP
38
44
44
44
44
44
C4
ENDCHAR
STARTCHAR 2153
ENCODING 8531
SWIDTH 909 0
DWIDTH 10 0
BBX 8 7 1 0
BITMAP
84
8C
98
B2
27
41
47
ENDCHAR
STARTCHAR 2154
ENCODING 8532
SWIDTH 909 0
DWIDTH 10 0
BBX 8 7 1 0
BITMAP
C4
C4
AC
DB
13
21
23
ENDCHAR
STARTCHAR 215B
ENCODING 8539
SWIDTH 909 0
DWIDTH 10 0
BBX 8 7 1 0
BITMAP
84
8C
98
B2
27
45
42
ENDCHAR
STARTCHAR 215C
ENCODING 8540
SWIDTH 909 0
DWIDTH 10 0
BBX 9 7 1 0
BITMAP
C200
C400
AC00
D900
1380
2280
2100
ENDCHAR
STARTCHAR 215D
ENCODING 8541
SWIDTH 1000 0
DWIDTH 11 0
BBX 9 7 1 0
BITMAP
C200
8400
CC00
D900
1380
2280
2100
ENDCHAR
STARTCHAR 215E
ENCODING 8542
SWIDTH 1000 0
DWIDTH 11 0
BBX 9 7 1 0
BITMAP
C200
A600
2C00
2980
0980
1280
1180
ENDCHAR
STARTCHAR 2206
ENCODING 8710
SWIDTH 545 0
DWIDTH 6 0
BBX 5 7 1 0
BITMAP
20
50
88
88
88
88
F8
ENDCHAR
STARTCHAR 220F
ENCODING 8719
SWIDTH 545 0
DWIDTH 6 0
BBX 5 7 1 0
BITMAP
F8
88
88
88
88
88
88
ENDCHAR
STARTCHAR 2211
ENCODING 8721
SWIDTH 727 0
DWIDTH 8 0
BBX 7 7 1 0
BITMAP
7E
80
60
1C
60
80
7E
ENDCHAR
STARTCHAR 2212
ENCODING 8722
SWIDTH 636 0
DWIDTH 7 0
BBX 4 1 1 3
BITMAP
F0
ENDCHAR
STARTCHAR 2215
ENCODING 8725
SWIDTH 545 0
DWIDTH 6 0
BBX 4 7 1 0
BITMAP
10
30
60
40
40
80
80
ENDCHAR
STARTCHAR 221E
ENCODING 8734
SWIDTH 909 0
DWIDTH 10 0
BBX 9 5 1 0
BITMAP
7700
8880
8880
8880
7700
ENDCHAR
STARTCHAR 2248
ENCODING 8776
SWIDTH 636 0
DWIDTH 7 0
BBX 3 4 2 1
BITMAP
E0
E0
E0
E0
ENDCHAR
STARTCHAR 2260
ENCODING 8800
SWIDTH 636 0
DWIDTH 7 0
BBX 4 6 1 0
BITMAP
30
F0
20
F0
40
40
ENDCHAR
STARTCHAR 2264
ENCODING 8804
SWIDTH 636 0
DWIDTH 7 0
BBX 4 9 1 -1
BITMAP
10
10
60
80
40
20
10
00
F0
ENDCHAR
STARTCHAR 2265
ENCODING 8805
SWIDTH 636 0
DWIDTH 7 0
BBX 4 9 1 -1
BITMAP
80
40
20
10
10
60
80
00
F0
ENDCHAR
STARTCHAR FB00
ENCODING 64256
SWIDTH 909 0
DWIDTH 10 0
BBX 9 7 1 0
BITMAP
7700
8880
8800
EE00
8800
8800
8800
ENDCHAR
STARTCHAR FB01
ENCODING 64257
SWIDTH 545 0
DWIDTH 6 0
BBX 5 7 1 0
BITMAP
70
88
80
F8
88
88
88
ENDCHAR
STARTCHAR FB02
ENCODING 64258
SWIDTH 545 0
DWIDTH 6 0
BBX 5 7 1 0
BITMAP
70
88
88
E8
88
88
88
ENDCHAR
STARTCHAR FB03
ENCODING 64259
SWIDTH 909 0
DWIDTH 10 0
BBX 9 7 1 0
BITMAP
7700
8880
8800
EF80
8880
8880
8880
ENDCHAR
STARTCHAR FB04
ENCODING 64260
SWIDTH 909 0
DWIDTH 10 0
BBX 9 7 1 0
BITMAP
7700
8880
8880
EE80
8880
8880
8880
ENDCHAR
STARTCHAR FB06
ENCODING 64262
SWIDTH 1090 0
DWIDTH 12 0
BBX 11 7 1 0
BITMAP
0200
0200
7FC0
8200
7200
0A20
F1C0
ENDCHAR
ENDFONT
